<?xml version="1.0" standalone="no"?>
<!DOCTYPE svg PUBLIC "-//W3C//DTD SVG 20010904//EN"
 "http://www.w3.org/TR/2001/REC-SVG-20010904/DTD/svg10.dtd">
<svg version="1.0" xmlns="http://www.w3.org/2000/svg"
 width="500.000000pt" height="500.000000pt" viewBox="0 0 500.000000 500.000000"
 preserveAspectRatio="xMidYMid meet">
<metadata>
Created by potrace 1.14, written by Peter Selinger 2001-2017
</metadata>
<g transform="translate(0.000000,500.000000) scale(0.100000,-0.100000)"
fill="#000000" stroke="none">
<path d="M2475 4110 c0 -506 -2 -592 -15 -600 -8 -5 -17 -7 -21 -4 -4 2 -61
11 -126 20 -317 41 -562 133 -747 280 -48 38 -104 83 -125 99 -21 17 -72 57
-112 91 -80 65 -173 131 -228 159 l-34 17 -111 -113 c-179 -183 -290 -341
-402 -574 -242 -503 -267 -1040 -74 -1599 105 -304 248 -536 468 -760 155
-158 306 -273 492 -375 277 -153 727 -276 950 -261 8 1 39 -2 68 -6 102 -14
350 22 537 78 111 32 536 221 555 247 3 3 17 12 32 20 15 8 25 17 23 21 -3 4
3 7 13 6 9 0 16 5 14 12 -1 8 2 11 7 7 14 -8 68 21 68 37 0 7 3 23 7 36 6 17
3 22 -9 22 -9 0 -13 5 -10 10 3 6 1 10 -5 10 -6 0 -9 4 -6 9 3 5 -10 19 -29
32 -19 13 -35 28 -35 33 0 11 -60 66 -72 66 -4 0 -8 7 -8 15 0 8 -4 15 -10 15
-5 0 -10 5 -10 10 0 6 7 10 15 10 8 0 15 -5 15 -11 0 -12 38 -49 50 -49 4 0
21 -20 39 -45 18 -25 39 -45 47 -45 8 0 14 -8 14 -18 0 -11 14 -25 33 -35 18
-9 25 -16 16 -16 -14 -1 -37 -31 -24 -31 12 0 53 28 90 61 46 41 56 69 25 69
-11 0 -20 6 -20 13 -1 16 -35 57 -49 57 -6 0 -11 12 -11 26 0 16 -5 24 -12 22
-15 -5 -43 20 -34 29 3 3 -3 13 -15 21 -11 8 -18 20 -15 28 3 7 0 11 -7 9 -17
-6 -50 21 -42 34 3 6 11 11 17 11 12 0 54 -51 51 -62 -2 -5 2 -8 8 -8 15 0 69
-61 69 -77 0 -7 12 -13 26 -13 l27 0 -32 28 c-18 15 -33 38 -34 50 -1 12 -7
22 -13 22 -13 0 -26 25 -17 34 12 12 22 6 16 -11 -4 -11 -3 -14 5 -9 7 4 12 2
12 -4 0 -6 5 -8 10 -5 5 3 10 3 10 -2 0 -4 14 -24 31 -43 17 -19 45 -54 61
-78 l30 -43 38 33 c21 18 39 38 39 44 1 15 -88 152 -153 234 -250 319 -383
443 -580 539 -149 74 -309 117 -597 162 l-77 11 3 167 c1 91 6 220 10 285 l8
119 301 -6 c303 -7 901 -32 966 -42 19 -2 127 -12 240 -20 189 -15 373 -36
428 -51 20 -6 22 -3 22 29 0 19 3 42 6 51 7 18 -34 41 -91 51 -22 4 -46 14
-52 23 -7 9 -13 11 -13 5 0 -7 -12 -10 -27 -7 -16 2 -46 6 -68 8 -22 3 -41 10
-43 16 -2 5 -8 10 -13 10 -6 0 -7 -5 -3 -11 4 -8 -3 -9 -22 -5 -27 6 -103 14
-324 36 -229 23 -828 49 -1115 50 -88 0 -166 4 -173 9 -11 6 -13 60 -10 269 2
157 7 265 13 270 6 6 73 15 150 21 77 6 190 20 250 30 131 23 351 102 431 155
44 29 58 34 73 26 26 -13 51 -3 44 18 -5 12 -2 14 13 7 10 -4 31 -8 45 -10 34
-2 50 -13 47 -32 -2 -9 5 -17 15 -18 26 -5 21 12 -17 51 -26 27 -35 31 -39 19
-4 -8 -11 -15 -17 -15 -16 0 -12 27 6 34 8 3 12 10 9 16 -3 5 3 10 14 10 20 0
27 10 15 23 -6 6 -21 -5 -85 -61 -21 -19 -44 -32 -50 -30 -7 2 3 15 22 28 19
13 36 27 39 30 3 3 21 18 40 34 41 33 107 92 167 149 34 32 45 38 56 28 11 -9
17 -8 26 3 7 9 8 17 2 20 -5 3 -11 0 -14 -6 -2 -7 -8 -9 -13 -5 -5 5 1 17 15
28 12 10 47 41 76 68 l54 49 -82 84 c-294 303 -806 538 -1250 574 -75 6 -80 5
-74 -12 6 -16 5 -17 -5 -4 -8 9 -34 16 -63 18 l-50 2 0 -590z m185 -520 c0 -5
-2 -10 -4 -10 -3 0 -8 5 -11 10 -3 6 -1 10 4 10 6 0 11 -4 11 -10z m-980 -60
c0 -5 -5 -10 -11 -10 -5 0 -7 5 -4 10 3 6 8 10 11 10 2 0 4 -4 4 -10z m-60
-24 c0 -3 -4 -8 -10 -11 -5 -3 -10 -1 -10 4 0 6 5 11 10 11 6 0 10 -2 10 -4z
m40 -26 c0 -5 -5 -10 -11 -10 -5 0 -7 5 -4 10 3 6 8 10 11 10 2 0 4 -4 4 -10z
m165 -9 c3 -5 1 -12 -5 -16 -5 -3 -10 1 -10 9 0 18 6 21 15 7z m-115 -11 c0
-5 -4 -10 -10 -10 -5 0 -10 5 -10 10 0 6 5 10 10 10 6 0 10 -4 10 -10z m60
-30 c0 -5 -4 -10 -10 -10 -5 0 -10 5 -10 10 0 6 5 10 10 10 6 0 10 -4 10 -10z
m180 -10 c0 -5 -4 -10 -10 -10 -5 0 -10 5 -10 10 0 6 5 10 10 10 6 0 10 -4 10
-10z m-280 -4 c0 -3 -4 -8 -10 -11 -5 -3 -10 -1 -10 4 0 6 5 11 10 11 6 0 10
-2 10 -4z m150 -12 c0 -8 -5 -12 -10 -9 -6 4 -8 11 -5 16 9 14 15 11 15 -7z
m190 0 c0 -8 -5 -12 -10 -9 -6 4 -8 11 -5 16 9 14 15 11 15 -7z m-460 -4 c0
-5 -4 -10 -10 -10 -5 0 -10 5 -10 10 0 6 5 10 10 10 6 0 10 -4 10 -10z m170 0
c0 -5 -4 -10 -10 -10 -5 0 -10 5 -10 10 0 6 5 10 10 10 6 0 10 -4 10 -10z
m503 3 c-7 -2 -19 -2 -25 0 -7 3 -2 5 12 5 14 0 19 -2 13 -5z m-338 -13 c-3
-5 -10 -10 -16 -10 -5 0 -9 5 -9 10 0 6 7 10 16 10 8 0 12 -4 9 -10z m185 0
c0 -5 -4 -10 -10 -10 -5 0 -10 5 -10 10 0 6 5 10 10 10 6 0 10 -4 10 -10z
m385 -12 c11 -12 -107 -3 -165 12 -24 6 -5 7 60 3 52 -3 100 -10 105 -15z
m-975 2 c0 -5 -2 -10 -4 -10 -3 0 -8 5 -11 10 -3 6 -1 10 4 10 6 0 11 -4 11
-10z m650 0 c0 -5 -4 -10 -10 -10 -5 0 -10 5 -10 10 0 6 5 10 10 10 6 0 10 -4
10 -10z m-190 -15 c0 -8 -4 -15 -10 -15 -5 0 -10 7 -10 15 0 8 5 15 10 15 6 0
10 -7 10 -15z m250 5 c0 -5 -4 -10 -10 -10 -5 0 -10 5 -10 10 0 6 5 10 10 10
6 0 10 -4 10 -10z m-139 -13 c-1 -12 -15 -9 -19 4 -3 6 1 10 8 8 6 -3 11 -8
11 -12z m-401 -7 c0 -5 -4 -10 -10 -10 -5 0 -10 5 -10 10 0 6 5 10 10 10 6 0
10 -4 10 -10z m55 1 c3 -5 1 -12 -5 -16 -5 -3 -10 1 -10 9 0 18 6 21 15 7z
m65 -1 c0 -5 -4 -10 -10 -10 -5 0 -10 5 -10 10 0 6 5 10 10 10 6 0 10 -4 10
-10z m230 0 c0 -5 -4 -10 -10 -10 -5 0 -10 5 -10 10 0 6 5 10 10 10 6 0 10 -4
10 -10z m250 1 c0 -12 -20 -25 -27 -18 -7 7 6 27 18 27 5 0 9 -4 9 -9z m60 -1
c0 -5 -7 -10 -15 -10 -8 0 -15 5 -15 10 0 6 7 10 15 10 8 0 15 -4 15 -10z m55
0 c3 -5 -1 -10 -10 -10 -9 0 -13 5 -10 10 3 6 8 10 10 10 2 0 7 -4 10 -10z
m-845 -10 c0 -5 -4 -10 -10 -10 -5 0 -10 5 -10 10 0 6 5 10 10 10 6 0 10 -4
10 -10z m320 0 c0 -5 -7 -10 -15 -10 -8 0 -15 5 -15 10 0 6 7 10 15 10 8 0 15
-4 15 -10z m300 -10 c0 -5 -7 -10 -15 -10 -8 0 -15 5 -15 10 0 6 7 10 15 10 8
0 15 -4 15 -10z m298 -10 c3 -8 -1 -11 -10 -7 -9 3 -25 -1 -37 -9 -11 -8 -21
-13 -21 -10 0 3 -1 9 -2 13 -2 3 6 7 17 9 11 2 21 8 23 14 5 14 24 8 30 -10z
m-544 -11 c-3 -5 -10 -7 -15 -3 -5 3 -7 10 -3 15 3 5 10 7 15 3 5 -3 7 -10 3
-15z m316 -1 c0 -13 -23 -5 -28 10 -2 7 2 10 12 6 9 -3 16 -11 16 -16z m-470
-8 c0 -5 -5 -10 -11 -10 -5 0 -7 5 -4 10 3 6 8 10 11 10 2 0 4 -4 4 -10z m211
-3 c-1 -12 -15 -9 -19 4 -3 6 1 10 8 8 6 -3 11 -8 11 -12z m137 2 c-2 -6 -8
-10 -13 -10 -5 0 -11 4 -13 10 -2 6 4 11 13 11 9 0 15 -5 13 -11z m240 2 c10
-6 10 -10 -3 -21 -8 -7 -15 -10 -15 -7 0 3 -3 12 -6 21 -7 17 3 20 24 7z
m-768 -5 c0 -11 -19 -15 -25 -6 -3 5 1 10 9 10 9 0 16 -2 16 -4z m120 -6 c0
-5 -4 -10 -10 -10 -5 0 -10 5 -10 10 0 6 5 10 10 10 6 0 10 -4 10 -10z m117
-12 c-3 -8 -6 -5 -6 6 -1 11 2 17 5 13 3 -3 4 -12 1 -19z m223 1 c0 -5 -4 -9
-10 -9 -5 0 -10 7 -10 16 0 8 5 12 10 9 6 -3 10 -10 10 -16z m249 12 c9 -6 10
-11 2 -15 -13 -8 -31 1 -31 15 0 11 11 11 29 0z m-129 -11 c0 -5 -4 -10 -10
-10 -5 0 -10 5 -10 10 0 6 5 10 10 10 6 0 10 -4 10 -10z m-280 -10 c0 -5 -4
-10 -10 -10 -5 0 -10 5 -10 10 0 6 5 10 10 10 6 0 10 -4 10 -10z m580 -10 c0
-13 -5 -18 -15 -14 -8 4 -15 12 -15 20 0 8 7 14 15 14 8 0 15 -9 15 -20z
m-520 -21 c0 -5 -4 -9 -10 -9 -5 0 -10 7 -10 16 0 8 5 12 10 9 6 -3 10 -10 10
-16z m280 5 c0 -8 -4 -12 -10 -9 -5 3 -10 10 -10 16 0 5 5 9 10 9 6 0 10 -7
10 -16z m190 1 c0 -8 -5 -15 -11 -15 -5 0 -7 4 -4 10 3 6 -1 7 -9 4 -9 -3 -16
-1 -16 5 0 6 9 11 20 11 11 0 20 -7 20 -15z m-402 -6 c-2 -6 -8 -10 -13 -10
-5 0 -11 4 -13 10 -2 6 4 11 13 11 9 0 15 -5 13 -11z m83 -2 c-1 -12 -15 -9
-19 4 -3 6 1 10 8 8 6 -3 11 -8 11 -12z m-486 -7 c3 -5 1 -10 -4 -10 -6 0 -11
5 -11 10 0 6 2 10 4 10 3 0 8 -4 11 -10z m65 0 c0 -5 -4 -10 -10 -10 -5 0 -10
5 -10 10 0 6 5 10 10 10 6 0 10 -4 10 -10z m130 6 c0 -3 -4 -8 -10 -11 -5 -3
-10 -1 -10 4 0 6 5 11 10 11 6 0 10 -2 10 -4z m550 -5 c0 -18 -18 -21 -30 -6
-10 13 -9 15 9 15 11 0 21 -4 21 -9z m-870 -11 c0 -5 -5 -10 -11 -10 -5 0 -7
5 -4 10 3 6 8 10 11 10 2 0 4 -4 4 -10z m380 0 c0 -5 -7 -10 -15 -10 -8 0 -15
5 -15 10 0 6 7 10 15 10 8 0 15 -4 15 -10z m300 -4 c0 -11 -19 -15 -25 -6 -3
5 1 10 9 10 9 0 16 -2 16 -4z m124 -11 c-4 -8 -10 -15 -14 -15 -4 0 -13 7 -20
15 -11 13 -8 15 13 15 19 0 25 -4 21 -15z m184 -12 c2 -8 -5 -13 -17 -13 -12
0 -21 6 -21 16 0 18 31 15 38 -3z m-558 -8 c0 -8 -4 -15 -10 -15 -5 0 -10 7
-10 15 0 8 5 15 10 15 6 0 10 -7 10 -15z m140 -1 c0 -14 -3 -14 -15 -4 -8 7
-15 14 -15 16 0 2 7 4 15 4 8 0 15 -7 15 -16z m166 -10 c-5 -14 -9 -14 -22 -3
-14 12 -14 14 3 20 23 8 27 4 19 -17z m204 18 c0 -19 -23 -32 -37 -21 -20 17
-15 29 12 29 14 0 25 -4 25 -8z m-440 -12 c0 -5 -7 -10 -15 -10 -8 0 -15 5
-15 10 0 6 7 10 15 10 8 0 15 -4 15 -10z m138 -9 c3 -8 -1 -12 -9 -9 -7 2 -15
10 -17 17 -3 8 1 12 9 9 7 -2 15 -10 17 -17z m-548 5 c0 -3 -4 -8 -10 -11 -5
-3 -10 -1 -10 4 0 6 5 11 10 11 6 0 10 -2 10 -4z m130 -6 c0 -5 -4 -10 -10
-10 -5 0 -10 5 -10 10 0 6 5 10 10 10 6 0 10 -4 10 -10z m70 6 c0 -3 -4 -8
-10 -11 -5 -3 -10 -1 -10 4 0 6 5 11 10 11 6 0 10 -2 10 -4z m60 -5 c0 -6 -4
-13 -10 -16 -5 -3 -10 1 -10 9 0 9 5 16 10 16 6 0 10 -4 10 -9z m520 0 c0 -11
-26 -22 -34 -14 -12 12 -5 23 14 23 11 0 20 -4 20 -9z m-840 -11 c0 -5 -4 -10
-10 -10 -5 0 -10 5 -10 10 0 6 5 10 10 10 6 0 10 -4 10 -10z m770 -10 c-1 -7
-26 -40 -31 -40 -2 0 -5 11 -5 24 -1 18 3 24 17 23 10 -1 19 -4 19 -7z m164
-6 c15 -6 23 -34 10 -34 -7 0 -34 27 -34 34 0 8 5 7 24 0z m-567 -30 c-9 -9
-28 6 -21 18 4 6 10 6 17 -1 6 -6 8 -13 4 -17z m133 11 c0 -8 -4 -15 -9 -15
-13 0 -22 16 -14 24 11 11 23 6 23 -9z m70 5 c13 -9 13 -11 0 -19 -10 -7 -17
-6 -22 2 -17 26 -5 35 22 17z m73 -16 c-4 -11 -9 -12 -19 -3 -17 14 -9 30 11
23 7 -3 11 -12 8 -20z m-423 0 c0 -8 -5 -12 -10 -9 -6 4 -8 11 -5 16 9 14 15
11 15 -7z m220 6 c0 -5 -7 -10 -15 -10 -8 0 -15 5 -15 10 0 6 7 10 15 10 8 0
15 -4 15 -10z m277 -14 c-7 -17 -37 -11 -37 6 0 6 7 8 15 4 8 -3 15 0 15 6 0
6 3 9 6 5 4 -3 4 -13 1 -21z m173 7 c0 -18 -25 -16 -40 2 -11 13 -8 15 14 13
14 -1 26 -8 26 -15z m-860 -3 c0 -5 -4 -10 -10 -10 -5 0 -10 5 -10 10 0 6 5
10 10 10 6 0 10 -4 10 -10z m60 0 c0 -5 -2 -10 -4 -10 -3 0 -8 5 -11 10 -3 6
-1 10 4 10 6 0 11 -4 11 -10z m200 1 c0 -6 -4 -13 -10 -16 -5 -3 -10 1 -10 9
0 9 5 16 10 16 6 0 10 -4 10 -9z m-320 -5 c0 -3 -4 -8 -10 -11 -5 -3 -10 -1
-10 4 0 6 5 11 10 11 6 0 10 -2 10 -4z m830 -5 c0 -5 10 -7 23 -3 19 5 20 4 9
-11 -11 -13 -17 -14 -33 -4 -20 13 -25 27 -9 27 6 0 10 -4 10 -9z m-890 -11
c0 -5 -5 -10 -11 -10 -5 0 -7 5 -4 10 3 6 8 10 11 10 2 0 4 -4 4 -10z m500
-26 c0 -9 -5 -14 -12 -12 -18 6 -21 28 -4 28 9 0 16 -7 16 -16z m61 3 c-1 -12
-15 -9 -19 4 -3 6 1 10 8 8 6 -3 11 -8 11 -12z m69 -8 c0 -5 -7 -9 -15 -9 -15
0 -20 12 -9 23 8 8 24 -1 24 -14z m224 -1 c-9 -31 -11 -33 -29 -18 -19 16 -20
34 0 27 8 -4 17 -2 20 3 11 18 16 10 9 -12z m190 6 c11 -28 7 -35 -13 -25 -27
15 -35 41 -12 41 10 0 22 -7 25 -16z m-837 -16 c-3 -8 -6 -5 -6 6 -1 11 2 17
5 13 3 -3 4 -12 1 -19z m137 1 c-3 -5 -10 -7 -15 -3 -5 3 -7 10 -3 15 3 5 10
7 15 3 5 -3 7 -10 3 -15z m86 11 c0 -5 -7 -10 -15 -10 -8 0 -15 5 -15 10 0 6
7 10 15 10 8 0 15 -4 15 -10z m270 -6 c0 -17 -22 -14 -28 4 -2 7 3 12 12 12 9
0 16 -7 16 -16z m80 -2 c0 -16 -32 -12 -37 5 -3 7 4 11 16 10 12 -1 21 -7 21
-15z m215 8 c3 -6 0 -16 -8 -24 -11 -12 -15 -11 -25 5 -7 10 -12 21 -12 24 0
9 39 5 45 -5z m-845 -10 c0 -5 -4 -10 -10 -10 -5 0 -10 5 -10 10 0 6 5 10 10
10 6 0 10 -4 10 -10z m130 0 c0 -5 -4 -10 -10 -10 -5 0 -10 5 -10 10 0 6 5 10
10 10 6 0 10 -4 10 -10z m-190 -10 c0 -5 -2 -10 -4 -10 -3 0 -8 5 -11 10 -3 6
-1 10 4 10 6 0 11 -4 11 -10z m820 -40 c-24 -33 -41 -38 -60 -15 -10 13 -9 15
11 16 13 1 28 1 32 0 5 -1 6 7 2 18 -4 14 -1 20 12 23 26 5 27 -8 3 -42z
m-880 30 c0 -5 -4 -10 -10 -10 -5 0 -10 5 -10 10 0 6 5 10 10 10 6 0 10 -4 10
-10z m496 -36 c-5 -14 -9 -15 -19 -5 -9 9 -9 14 3 21 18 11 24 6 16 -16z m515
16 c5 0 8 -3 8 -7 -1 -5 0 -10 1 -13 7 -19 6 -137 -3 -147 -16 -21 -40 -16
-34 7 3 11 1 18 -4 14 -5 -3 -9 2 -9 10 0 10 6 13 16 9 13 -5 15 -2 9 18 -4
13 -12 26 -16 27 -5 2 -9 8 -9 13 0 4 7 6 15 3 9 -4 15 0 15 10 0 18 -30 22
-47 5 -7 -7 -15 -2 -27 15 l-16 26 42 -4 c24 -3 37 -2 31 0 -19 8 -16 27 3 20
9 -3 20 -6 25 -6z m-651 -16 c0 -8 -4 -12 -10 -9 -5 3 -10 10 -10 16 0 5 5 9
10 9 6 0 10 -7 10 -16z m70 6 c0 -5 -7 -10 -15 -10 -8 0 -15 5 -15 10 0 6 7
10 15 10 8 0 15 -4 15 -10z m205 -1 c4 -6 5 -12 2 -15 -7 -7 -37 7 -37 17 0
13 27 11 35 -2z m129 5 c15 -6 23 -34 10 -34 -7 0 -34 27 -34 34 0 8 5 7 24 0z
m-674 -14 c0 -5 -5 -10 -11 -10 -5 0 -7 5 -4 10 3 6 8 10 11 10 2 0 4 -4 4
-10z m70 6 c0 -3 -4 -8 -10 -11 -5 -3 -10 -1 -10 4 0 6 5 11 10 11 6 0 10 -2
10 -4z m130 -6 c0 -5 -4 -10 -10 -10 -5 0 -10 5 -10 10 0 6 5 10 10 10 6 0 10
-4 10 -10z m280 -6 c0 -9 -5 -14 -12 -12 -18 6 -21 28 -4 28 9 0 16 -7 16 -16z
m140 1 c0 -8 -3 -15 -6 -15 -3 0 -12 7 -20 15 -14 13 -13 15 5 15 12 0 21 -6
21 -15z m-490 -5 c0 -5 -4 -10 -10 -10 -5 0 -10 5 -10 10 0 6 5 10 10 10 6 0
10 -4 10 -10z m-190 -10 c0 -5 -4 -10 -10 -10 -5 0 -10 5 -10 10 0 6 5 10 10
10 6 0 10 -4 10 -10z m368 -31 c-2 -6 -8 -10 -13 -10 -5 0 -11 4 -13 10 -2 6
4 11 13 11 9 0 15 -5 13 -11z m272 -20 c0 -19 -1 -19 -16 -5 -8 9 -12 20 -9
26 9 15 25 2 25 -21z m-540 11 c0 -5 -4 -10 -10 -10 -5 0 -10 5 -10 10 0 6 5
10 10 10 6 0 10 -4 10 -10z m130 0 c0 -5 -4 -10 -10 -10 -5 0 -10 5 -10 10 0
6 5 10 10 10 6 0 10 -4 10 -10z m70 0 c0 -5 -4 -10 -10 -10 -5 0 -10 5 -10 10
0 6 5 10 10 10 6 0 10 -4 10 -10z m137 -16 c-9 -9 -28 6 -21 18 4 6 10 6 17
-1 6 -6 8 -13 4 -17z m63 16 c0 -5 -7 -10 -15 -10 -8 0 -15 5 -15 10 0 6 7 10
15 10 8 0 15 -4 15 -10z m206 2 c14 -10 26 -42 14 -42 -5 0 -16 7 -24 16 -26
25 -18 45 10 26z m152 -14 c-2 -12 -9 -24 -17 -26 -9 -3 -12 0 -8 10 3 9 0 21
-6 27 -8 8 -5 11 12 11 17 0 22 -5 19 -22z m-698 2 c0 -5 -2 -10 -4 -10 -3 0
-8 5 -11 10 -3 6 -1 10 4 10 6 0 11 -4 11 -10z m410 -5 c0 -9 -6 -12 -15 -9
-8 4 -15 10 -15 15 0 5 7 9 15 9 8 0 15 -7 15 -15z m220 1 c0 -8 -7 -16 -15
-20 -9 -3 -15 0 -15 8 0 8 -6 17 -12 19 -7 3 -1 6 15 6 17 1 27 -4 27 -13z
m138 -3 c-2 -9 -10 -18 -18 -21 -8 -3 -12 -1 -8 3 4 5 3 14 -3 22 -9 10 -7 13
11 13 15 0 20 -5 18 -17z m135 8 c5 -1 6 -5 2 -10 -3 -5 -1 -12 5 -16 7 -4 7
-12 0 -26 -9 -16 -7 -19 10 -19 11 0 20 -5 20 -11 0 -7 -10 -9 -27 -4 -16 4
-34 8 -40 8 -8 0 -13 16 -13 43 0 35 3 42 18 39 9 -2 21 -4 25 -4z m67 -11 c0
-5 -4 -10 -10 -10 -5 0 -10 5 -10 10 0 6 5 10 10 10 6 0 10 -4 10 -10z m-805
-29 c3 -5 1 -12 -5 -16 -5 -3 -10 1 -10 9 0 18 6 21 15 7z m57 -13 c-7 -7 -12
-8 -12 -2 0 14 12 26 19 19 2 -3 -1 -11 -7 -17z m78 -9 c0 -5 -4 -9 -10 -9 -5
0 -10 7 -10 16 0 8 5 12 10 9 6 -3 10 -10 10 -16z m70 17 c0 -11 -19 -15 -25
-6 -3 5 1 10 9 10 9 0 16 -2 16 -4z m60 -6 c0 -5 -4 -10 -10 -10 -5 0 -10 5
-10 10 0 6 5 10 10 10 6 0 10 -4 10 -10z m70 0 c0 -5 -7 -10 -15 -10 -8 0 -15
5 -15 10 0 6 7 10 15 10 8 0 15 -4 15 -10z m57 4 c-3 -3 -12 -4 -19 -1 -8 3
-5 6 6 6 11 1 17 -2 13 -5z m58 -4 c3 -5 -1 -10 -9 -10 -9 0 -16 5 -16 10 0 6
4 10 9 10 6 0 13 -4 16 -10z m140 1 c10 -17 -12 -21 -25 -6 -10 12 -10 15 3
15 9 0 18 -4 22 -9z m212 -23 c-3 -8 -6 -5 -6 6 -1 11 2 17 5 13 3 -3 4 -12 1
-19z m-126 -58 c19 -11 26 -44 10 -54 -5 -3 -11 2 -13 12 -6 20 -37 21 -97 3
-35 -11 -51 -7 -51 11 0 5 6 8 14 5 7 -3 18 -1 24 5 6 6 29 10 51 10 24 -1 39
3 36 9 -8 12 2 12 26 -1z m132 -15 c-4 -18 -3 -18 13 3 23 31 31 28 29 -15 -1
-21 3 -44 8 -50 7 -9 5 -13 -7 -13 -9 0 -16 6 -16 14 0 7 -7 19 -15 26 -9 8
-15 9 -15 2 0 -6 5 -14 10 -17 6 -3 10 -11 10 -16 0 -6 -4 -8 -9 -5 -9 6 -31
-36 -31 -59 0 -28 -17 -15 -24 16 -4 24 -2 35 11 45 15 12 15 13 2 8 -12 -4
-19 5 -26 35 -12 44 -7 50 38 47 20 -1 25 -5 22 -21z m-86 -7 c-3 -8 -6 -5 -6
6 -1 11 2 17 5 13 3 -3 4 -12 1 -19z m-64 -44 c-4 -10 3 -14 22 -14 15 0 24
-4 20 -10 -3 -5 0 -10 8 -10 10 0 13 8 9 25 -3 19 -1 24 10 20 15 -6 18 -70 5
-92 -11 -17 -39 -4 -32 15 5 13 3 13 -11 1 -15 -12 -16 -11 -10 9 5 16 3 24
-8 27 -9 3 -24 8 -33 11 -10 4 -36 7 -58 6 -29 0 -32 1 -12 5 16 2 30 10 33
17 3 7 16 11 34 8 19 -3 27 -9 23 -18z m-126 -30 c-3 -3 -12 -4 -19 -1 -8 3
-5 6 6 6 11 1 17 -2 13 -5z m76 -1 c-7 -2 -19 -2 -25 0 -7 3 -2 5 12 5 14 0
19 -2 13 -5z m-323 -113 c0 -5 -2 -10 -4 -10 -3 0 -8 5 -11 10 -3 6 -1 10 4
10 6 0 11 -4 11 -10z m65 0 c3 -5 1 -10 -4 -10 -6 0 -11 5 -11 10 0 6 2 10 4
10 3 0 8 -4 11 -10z m145 -10 c0 -5 -2 -10 -4 -10 -3 0 -8 5 -11 10 -3 6 -1
10 4 10 6 0 11 -4 11 -10z m-300 -64 c0 -3 -4 -8 -10 -11 -5 -3 -10 -1 -10 4
0 6 5 11 10 11 6 0 10 -2 10 -4z m70 -126 c0 -5 -5 -10 -11 -10 -5 0 -7 5 -4
10 3 6 8 10 11 10 2 0 4 -4 4 -10z m580 -432 c20 -2 25 -8 23 -31 -1 -15 1
-27 5 -28 56 -7 57 -5 23 34 -14 17 -12 18 44 12 147 -14 265 -36 258 -49 -3
-5 -1 -6 5 -2 12 7 137 -32 191 -60 129 -65 341 -239 317 -259 -6 -5 -19 -11
-29 -11 -18 -2 -18 -1 0 18 14 16 15 20 3 18 -28 -4 -40 0 -40 14 0 8 -9 18
-21 21 -13 4 -18 12 -15 21 3 8 2 13 -3 10 -7 -5 -20 3 -68 44 -7 6 -13 7 -13
3 0 -4 -4 -2 -9 5 -4 7 -14 14 -22 15 -8 2 -20 6 -26 10 -7 5 -18 5 -23 2 -18
-11 8 -34 30 -28 11 3 20 0 20 -6 0 -6 9 -11 20 -11 13 0 20 -7 20 -20 0 -11
5 -20 11 -20 20 0 89 -55 89 -72 0 -9 6 -18 13 -21 9 -4 9 -7 -1 -18 -11 -12
-14 -12 -22 1 -9 13 -11 13 -20 0 -21 -33 0 -49 35 -26 30 20 55 21 55 2 0
-19 -17 -29 -25 -16 -9 15 -25 12 -25 -4 0 -22 -26 -26 -41 -5 -7 10 -19 19
-26 19 -7 0 -13 9 -13 21 0 11 -4 17 -11 14 -5 -4 -18 2 -28 13 -9 11 -43 32
-75 47 -31 14 -60 33 -63 41 -3 7 -11 14 -19 14 -8 0 -14 5 -14 10 0 6 -13 10
-29 10 -17 0 -33 5 -36 11 -4 6 -14 8 -23 4 -8 -3 -25 4 -39 16 -15 15 -23 18
-23 9 0 -9 -9 -5 -26 10 -21 21 -27 22 -34 10 -8 -13 -12 -11 -26 8 -9 14 -22
21 -32 18 -10 -3 -26 2 -37 10 -29 22 0 38 32 17 22 -15 23 -14 23 15 0 34
-28 53 -42 28 -7 -13 -11 -13 -28 4 -24 24 -25 30 -5 30 21 0 19 12 -5 33 -22
19 -22 19 -25 -38 -2 -26 3 -47 14 -59 12 -15 13 -20 3 -23 -10 -4 -10 -10 3
-29 19 -29 11 -51 -12 -33 -8 7 -12 20 -10 30 3 10 -3 26 -12 36 -10 10 -16
24 -13 31 2 7 -3 24 -12 37 -16 24 -15 25 4 25 26 0 25 15 -2 34 -16 12 -24
13 -29 4 -4 -7 -5 -16 -2 -21 3 -4 2 -20 -2 -34 l-6 -26 -23 22 c-29 28 -36
27 -36 -6 l0 -28 -20 25 c-19 25 -19 25 1 30 21 5 21 5 -1 33 -12 15 -25 25
-28 22 -3 -3 -7 -92 -9 -197 -2 -106 -6 -194 -9 -197 -2 -2 -4 94 -4 214 0
173 3 215 13 207 6 -5 23 -12 37 -14z m-210 -15 c0 -7 0 -16 1 -20 0 -4 -4 -9
-10 -11 -6 -2 -11 3 -11 12 0 9 -5 16 -11 16 -5 0 -8 4 -5 8 8 14 36 10 36 -5z
m-53 -13 c-1 -11 -5 -20 -9 -20 -4 0 -12 9 -18 20 -9 17 -8 20 9 20 14 0 19
-6 18 -20z m-119 -15 c2 -28 -13 -34 -22 -8 -5 13 1 24 19 33 0 0 2 -11 3 -25z
m59 10 c8 -22 -6 -33 -17 -15 -13 20 -12 30 0 30 6 0 13 -7 17 -15z m-120 -20
c8 -22 -6 -33 -17 -15 -13 20 -12 30 0 30 6 0 13 -7 17 -15z m-62 -5 c3 -5 3
-15 -1 -21 -6 -11 -23 6 -24 24 0 10 18 9 25 -3z m233 -36 l3 -29 -22 21 c-12
12 -18 27 -14 34 12 19 30 5 33 -26z m60 13 c5 -23 -10 -21 -26 4 -12 18 -11
20 5 17 10 -2 19 -11 21 -21z m-358 -3 c0 -14 -3 -14 -15 -4 -8 7 -15 14 -15
16 0 2 7 4 15 4 8 0 15 -7 15 -16z m-60 -20 c0 -8 -4 -12 -10 -9 -5 3 -10 13
-10 21 0 8 5 12 10 9 6 -3 10 -13 10 -21z m274 20 c15 -6 23 -44 10 -44 -8 0
-33 32 -34 43 0 9 4 9 24 1z m-59 -21 c13 -31 13 -40 -1 -40 -7 0 -11 4 -8 8
2 4 0 10 -6 14 -12 8 -13 35 -1 35 5 0 12 -8 16 -17z m-275 -9 c0 -8 -4 -12
-10 -9 -5 3 -10 10 -10 16 0 5 5 9 10 9 6 0 10 -7 10 -16z m220 -20 c0 -8 -3
-14 -8 -14 -11 0 -32 37 -25 44 9 8 33 -14 33 -30z m-64 -21 c-8 -9 -36 30
-29 40 3 5 12 -1 20 -13 8 -12 12 -24 9 -27z m317 1 c-4 -10 -9 -8 -23 9 -13
16 -15 24 -7 29 15 10 37 -19 30 -38z m-523 20 c0 -8 -4 -12 -10 -9 -5 3 -10
10 -10 16 0 5 5 9 10 9 6 0 10 -7 10 -16z m828 4 c7 -7 12 -20 12 -29 0 -9 7
-22 15 -29 12 -10 13 -16 5 -24 -8 -8 -14 -7 -20 4 -4 8 -20 28 -34 45 -18 21
-22 31 -13 37 16 10 21 10 35 -4z m-368 -18 c0 -11 -4 -20 -10 -20 -5 0 -14 9
-20 20 -9 17 -8 20 10 20 13 0 20 -7 20 -20z m298 -8 c4 -26 -6 -28 -24 -4
-18 24 -17 34 4 30 9 -2 18 -13 20 -26z m-619 -7 c3 -17 2 -17 -13 -3 -19 20
-21 31 -3 26 6 -3 14 -13 16 -23z m-189 5 c0 -5 -2 -10 -4 -10 -3 0 -8 5 -11
10 -3 6 -1 10 4 10 6 0 11 -4 11 -10z m124 -6 c11 -28 6 -38 -9 -18 -8 10 -15
22 -15 27 0 13 18 7 24 -9z m312 1 c4 -8 3 -23 0 -32 -6 -14 -9 -12 -21 11
-18 35 -18 36 0 36 9 0 18 -7 21 -15z m-76 -10 c11 -13 6 -35 -8 -35 -4 0 -12
11 -19 25 -9 20 -8 25 2 25 7 0 18 -7 25 -15z m-286 -44 c-7 -8 -33 33 -27 43
3 5 12 -2 19 -15 7 -13 10 -26 8 -28z m214 19 c3 -21 2 -22 -12 -11 -19 16
-21 44 -3 39 6 -3 14 -15 15 -28z m287 10 c11 -17 -5 -32 -21 -19 -8 6 -14 15
-14 20 0 12 27 11 35 -1z m-351 -16 c11 -28 6 -39 -9 -20 -8 11 -15 23 -15 28
0 14 18 9 24 -8z m280 0 c10 -27 -4 -34 -24 -14 -25 25 -25 30 -1 30 10 0 22
-7 25 -16z m294 -14 c3 -21 2 -22 -12 -11 -19 16 -21 44 -3 39 6 -3 14 -15 15
-28z m56 14 c15 -38 -9 -41 -32 -4 -11 17 -10 20 7 20 10 0 22 -7 25 -16z
m-844 -15 c0 -6 -4 -7 -10 -4 -5 3 -10 11 -10 16 0 6 5 7 10 4 6 -3 10 -11 10
-16z m155 -27 c-8 -9 -25 20 -18 31 3 5 10 2 15 -7 6 -10 7 -20 3 -24z m255
17 c39 -20 51 -41 30 -54 -6 -3 -15 6 -20 20 -5 14 -15 23 -20 20 -9 -6 -40
17 -40 29 0 9 7 7 50 -15z m619 4 c14 -16 28 -20 81 -24 8 -1 23 -8 32 -16 9
-8 23 -13 30 -10 7 2 21 -3 31 -11 15 -13 22 -14 38 -4 16 10 19 10 19 -3 0
-9 8 -19 18 -22 9 -4 23 -15 30 -24 7 -10 19 -16 27 -13 8 4 18 -1 21 -10 4
-11 13 -14 25 -11 11 4 19 2 19 -5 0 -6 8 -14 17 -17 44 -17 84 -89 46 -81
-10 2 -18 8 -17 14 0 5 -10 19 -23 31 -12 12 -23 19 -23 16 0 -4 -12 4 -26 18
-14 13 -29 23 -32 23 -13 -3 -48 14 -61 29 -7 9 -18 14 -25 11 -8 -3 -16 2
-19 10 -4 9 -13 13 -22 10 -9 -4 -24 1 -34 10 -10 9 -25 14 -34 10 -11 -4 -19
0 -23 10 -7 18 -29 21 -39 6 -3 -5 1 -20 10 -34 14 -22 14 -24 1 -22 -23 3
-29 12 -30 43 -1 22 -6 29 -26 31 -40 6 -73 52 -37 52 5 0 17 -8 26 -17z
m-1179 -13 c0 -5 -2 -10 -4 -10 -3 0 -8 5 -11 10 -3 6 -1 10 4 10 6 0 11 -4
11 -10z m98 -15 c-3 -3 -9 2 -12 12 -6 14 -5 15 5 6 7 -7 10 -15 7 -18z m380
12 c6 -7 8 -18 4 -24 -5 -7 -13 -2 -25 13 -14 19 -15 24 -4 24 8 0 19 -6 25
-13z m236 -19 c-3 -5 -12 -4 -20 3 -7 6 -11 15 -8 21 3 5 12 4 20 -3 7 -6 11
-15 8 -21z m351 -8 c-5 -8 -12 -6 -25 7 -12 12 -14 20 -6 25 15 10 40 -17 31
-32z m-820 19 c11 -17 -1 -21 -15 -4 -8 9 -8 15 -2 15 6 0 14 -5 17 -11z m168
-32 c-7 -11 -23 12 -23 33 1 12 4 11 15 -4 8 -10 12 -23 8 -29z m-229 17 c9
-24 2 -26 -12 -4 -7 11 -8 20 -3 20 5 0 12 -7 15 -16z m816 -9 c0 -14 -4 -25
-10 -25 -5 0 -10 7 -10 15 0 8 -4 15 -10 15 -5 0 -10 5 -10 10 0 6 9 10 20 10
15 0 20 -7 20 -25z m-650 -13 c0 -15 -2 -15 -10 -2 -13 20 -13 33 0 25 6 -3
10 -14 10 -23z m304 12 c10 -26 -5 -39 -21 -19 -7 11 -13 22 -13 27 0 15 28 8
34 -8z m284 -12 c4 -25 -13 -30 -22 -6 -9 25 -7 36 7 32 6 -3 13 -14 15 -26z
m187 18 c3 -5 14 -10 24 -10 23 0 41 -19 34 -37 -4 -11 -10 -10 -29 8 -17 16
-27 19 -36 11 -10 -8 -16 -5 -25 14 -10 21 -9 24 7 24 11 0 22 -4 25 -10z
m-595 -15 c6 -8 9 -19 5 -25 -7 -11 -34 15 -35 33 0 12 17 8 30 -8z m-400 -16
c0 -6 -4 -7 -10 -4 -5 3 -10 11 -10 16 0 6 5 7 10 4 6 -3 10 -11 10 -16z m170
-17 c0 -13 -3 -12 -15 4 -19 25 -19 40 0 24 8 -7 15 -20 15 -28z m158 16 c13
-13 16 -38 5 -38 -5 0 -13 11 -20 25 -12 27 -5 33 15 13z m-228 -19 c0 -6 -4
-7 -10 -4 -5 3 -10 11 -10 16 0 6 5 7 10 4 6 -3 10 -11 10 -16z m477 6 c9 -25
-4 -29 -17 -6 -7 15 -7 21 0 21 6 0 13 -7 17 -15z m360 0 c3 -9 3 -19 -1 -22
-7 -7 -36 16 -36 28 0 15 30 10 37 -6z m-667 -17 c0 -12 -1 -19 -3 -17 -1 2
-9 12 -16 22 -12 14 -11 17 3 17 10 0 16 -8 16 -22z m198 -1 c5 -23 -10 -21
-26 4 -12 18 -11 20 5 17 10 -2 19 -11 21 -21z m402 -9 l0 -31 -23 24 c-14 15
-19 27 -12 31 22 16 35 7 35 -24z m304 6 c9 -22 8 -24 -9 -24 -8 0 -15 9 -15
20 0 24 15 27 24 4z m-367 -9 c8 -22 -6 -33 -17 -15 -13 20 -12 30 0 30 6 0
13 -7 17 -15z m189 4 c13 -22 -12 -30 -31 -9 -18 19 -18 20 3 20 11 0 24 -5
28 -11z m-946 -9 c0 -5 -2 -10 -4 -10 -3 0 -8 5 -11 10 -3 6 -1 10 4 10 6 0
11 -4 11 -10z m170 -22 c0 -6 -7 -5 -15 2 -8 7 -15 17 -15 22 0 6 7 5 15 -2 8
-7 15 -17 15 -22z m178 9 c2 -9 -1 -17 -7 -17 -6 0 -11 6 -11 14 0 8 -6 17
-12 20 -7 3 -4 5 7 3 11 -1 21 -10 23 -20z m127 13 c11 -18 -5 -31 -21 -16 -8
8 -14 17 -14 20 0 10 28 7 35 -4z m534 -4 c9 -10 9 -16 1 -21 -13 -8 -42 14
-34 26 8 13 20 11 33 -5z m-911 -21 c-3 -3 -9 2 -12 12 -6 14 -5 15 5 6 7 -7
10 -15 7 -18z m431 -1 c3 -16 1 -17 -13 -5 -19 16 -21 34 -3 29 6 -3 14 -13
16 -24z m351 0 c0 -16 -16 -19 -25 -4 -8 13 4 32 16 25 5 -4 9 -13 9 -21z
m307 11 c7 -20 0 -27 -20 -19 -25 9 -30 34 -6 34 11 0 22 -7 26 -15z m-908 -9
c7 -8 8 -17 3 -19 -4 -3 -13 3 -20 14 -14 22 0 26 17 5z m791 10 c0 -2 3 -12
7 -21 5 -15 3 -16 -15 -6 -25 13 -29 31 -7 31 8 0 15 -2 15 -4z m-1176 -22 c3
-8 2 -12 -4 -9 -6 3 -10 10 -10 16 0 14 7 11 14 -7z m514 -7 c5 -24 -15 -21
-28 4 -10 18 -9 20 7 17 10 -2 19 -11 21 -21z m837 6 c19 -9 35 -20 35 -25 0
-13 28 -9 33 5 4 7 6 6 6 -4 1 -9 17 -27 36 -40 19 -13 35 -30 35 -36 0 -7 5
-13 10 -13 6 0 10 -7 10 -15 0 -17 -9 -19 -29 -6 -8 5 -11 16 -8 24 4 11 1 14
-8 10 -9 -3 -25 8 -40 26 -15 17 -32 28 -40 25 -8 -3 -21 3 -31 14 -9 11 -22
18 -29 16 -7 -3 -15 4 -18 15 -6 25 -7 25 38 4z m-1200 -4 c11 -16 1 -19 -13
-3 -7 8 -8 14 -3 14 5 0 13 -5 16 -11z m175 -17 c0 -15 -2 -15 -10 -2 -13 20
-13 33 0 25 6 -3 10 -14 10 -23z m537 8 c2 -22 -12 -27 -23 -9 -5 9 5 22 21
29 1 0 1 -9 2 -20z m63 -2 c0 -21 0 -21 -22 -2 -13 10 -25 20 -27 21 -2 2 8 3
22 3 21 0 27 -5 27 -22z m135 -12 c8 -18 26 -41 40 -50 27 -18 35 -49 10 -40
-8 4 -15 11 -15 18 0 6 -10 16 -22 21 -13 6 -22 16 -21 22 1 6 -4 17 -12 23
-17 14 -20 40 -4 40 5 0 16 -15 24 -34z m73 -17 c-17 -11 -28 -2 -28 23 0 21
1 21 20 3 15 -14 17 -21 8 -26z m96 25 c4 -11 1 -14 -11 -12 -9 2 -18 9 -21
16 -6 18 25 15 32 -4z m521 -17 c-20 -11 -29 -3 -21 19 5 13 9 14 22 3 14 -11
14 -13 -1 -22z m-1497 5 c6 -18 -15 -14 -22 4 -4 10 -1 14 6 12 6 -2 14 -10
16 -16z m195 3 c4 -8 2 -17 -3 -20 -6 -4 -10 -4 -10 -1 0 2 -3 11 -6 20 -3 9
-2 16 4 16 5 0 12 -7 15 -15z m131 -16 c-4 -6 -11 -6 -20 2 -21 17 -17 31 6
19 11 -6 18 -15 14 -21z m-476 -4 c-3 -3 -9 2 -12 12 -6 14 -5 15 5 6 7 -7 10
-15 7 -18z m532 -3 c0 -15 -2 -15 -10 -2 -13 20 -13 33 0 25 6 -3 10 -14 10
-23z m350 12 c0 -9 -5 -14 -12 -12 -18 6 -21 28 -4 28 9 0 16 -7 16 -16z m303
-4 c3 -13 0 -20 -8 -20 -17 0 -28 17 -20 30 10 16 22 12 28 -10z m-480 -117
c-2 -70 -6 -130 -9 -132 -2 -2 -4 55 -4 127 0 73 4 132 9 132 5 0 7 -56 4
-127z m999 75 c-1 -5 4 -8 11 -8 17 -1 49 -47 37 -55 -16 -10 -30 4 -23 22 4
11 2 14 -5 9 -17 -10 -53 30 -45 51 6 16 5 16 -10 4 -15 -11 -17 -11 -17 2 0
24 24 26 40 3 8 -12 14 -24 12 -28z m-1612 21 c0 -6 -4 -7 -10 -4 -5 3 -10 11
-10 16 0 6 5 7 10 4 6 -3 10 -11 10 -16z m190 5 c0 -8 -4 -12 -10 -9 -5 3 -10
10 -10 16 0 5 5 9 10 9 6 0 10 -7 10 -16z m129 -10 c3 -16 1 -17 -13 -5 -19
16 -21 34 -3 29 6 -3 14 -13 16 -24z m398 11 c3 -9 3 -19 -1 -22 -8 -9 -37 18
-30 28 8 14 24 11 31 -6z m270 -17 c-13 -8 -39 10 -31 23 3 5 14 3 24 -3 13
-9 16 -14 7 -20z m-877 6 c0 -14 -3 -14 -15 -4 -8 7 -15 14 -15 16 0 2 7 4 15
4 8 0 15 -7 15 -16z m545 7 c3 -5 1 -12 -5 -16 -5 -3 -10 1 -10 9 0 18 6 21
15 7z m489 -6 c3 -8 2 -15 -3 -15 -5 0 -14 7 -21 15 -10 12 -10 15 3 15 8 0
17 -7 21 -15z m-314 -15 c0 -11 -2 -20 -5 -20 -2 0 -9 9 -15 20 -9 16 -8 20 5
20 8 0 15 -9 15 -20z m209 6 c9 -11 9 -16 0 -21 -10 -7 -28 10 -29 28 0 12 17
8 29 -7z m494 -11 c-6 -16 -16 -19 -26 -8 -9 8 13 34 24 28 4 -3 6 -12 2 -20z
m-1578 4 c11 -17 -1 -21 -15 -4 -8 9 -8 15 -2 15 6 0 14 -5 17 -11z m95 -17
c0 -15 -2 -15 -10 -2 -13 20 -13 33 0 25 6 -3 10 -14 10 -23z m197 13 c8 -23
0 -24 -19 -3 -15 15 -16 18 -3 18 9 0 18 -7 22 -15z m132 -11 c3 -16 1 -17
-13 -5 -19 16 -21 34 -3 29 6 -3 14 -13 16 -24z m58 11 c9 -25 -4 -29 -17 -6
-7 15 -7 21 0 21 6 0 13 -7 17 -15z m771 -15 c26 -35 27 -40 7 -40 -8 0 -15 9
-15 20 0 11 -5 19 -12 18 -6 -2 -14 5 -16 15 -5 26 12 20 36 -13z m188 -8 c-4
-3 -12 0 -19 7 -9 9 -9 14 3 21 11 7 16 5 18 -6 2 -9 1 -18 -2 -22z m-1247 14
c7 -8 8 -17 3 -20 -6 -3 -12 3 -15 14 -6 24 -4 25 12 6z m622 1 c-1 -12 -15
-9 -19 4 -3 6 1 10 8 8 6 -3 11 -8 11 -12z m-927 -13 c3 -8 2 -12 -4 -9 -6 3
-10 10 -10 16 0 14 7 11 14 -7z m1254 -3 c3 -8 -1 -12 -9 -9 -7 2 -15 10 -17
17 -3 8 1 12 9 9 7 -2 15 -10 17 -17z m380 2 c-5 -25 -28 -28 -28 -4 0 12 6
21 16 21 9 0 14 -7 12 -17z m82 -18 c-10 -12 -15 -13 -21 -3 -11 17 11 42 24
29 7 -7 6 -15 -3 -26z m-1245 15 c3 -5 3 -15 -1 -21 -6 -11 -23 6 -24 24 0 10
18 9 25 -3z m405 -17 c0 -13 -3 -13 -15 -3 -8 7 -12 16 -9 21 8 13 24 1 24
-18z m270 12 c7 -9 19 -14 27 -11 8 3 16 -1 20 -10 9 -23 -5 -29 -25 -11 -10
10 -26 17 -35 17 -9 0 -17 7 -17 15 0 19 14 19 30 0z m150 -11 c0 -8 7 -14 15
-14 8 0 15 -4 15 -9 0 -18 49 -61 64 -55 11 4 16 1 16 -10 0 -19 1 -19 -39 -5
-17 6 -31 17 -31 24 0 8 -10 15 -22 17 -13 2 -22 9 -20 16 1 7 -5 20 -13 28
-8 9 -13 20 -9 25 7 13 24 1 24 -17z m-476 -5 c-3 -5 -10 -7 -15 -3 -5 3 -7
10 -3 15 3 5 10 7 15 3 5 -3 7 -10 3 -15z m200 6 c3 -9 0 -15 -9 -15 -16 0
-27 14 -18 24 10 10 21 7 27 -9z m-759 -5 c3 -5 1 -10 -4 -10 -6 0 -11 5 -11
10 0 6 2 10 4 10 3 0 8 -4 11 -10z m105 0 c0 -5 -4 -10 -9 -10 -6 0 -13 5 -16
10 -3 6 1 10 9 10 9 0 16 -4 16 -10z m230 -18 c0 -15 -2 -15 -10 -2 -13 20
-13 33 0 25 6 -3 10 -14 10 -23z m918 5 c2 -10 -3 -17 -12 -17 -10 0 -16 9
-16 21 0 24 23 21 28 -4z m59 -6 c-6 -38 -15 -51 -33 -51 -21 0 -17 18 7 25
19 6 19 8 5 24 -17 19 -12 31 11 31 10 0 13 -9 10 -29z m173 -5 c-14 -14 -24
0 -16 21 6 15 8 15 16 3 6 -9 5 -19 0 -24z m-1210 4 c0 -11 -2 -20 -5 -20 -2
0 -9 9 -15 20 -9 16 -8 20 5 20 8 0 15 -9 15 -20z m420 -6 c0 -12 -4 -13 -21
-3 -17 9 -19 13 -8 19 16 11 29 4 29 -16z m123 -15 c-6 -6 -15 -4 -23 6 -12
14 -11 18 0 25 18 11 37 -17 23 -31z m337 9 c0 -5 -7 -8 -15 -8 -15 0 -20 21
-8 33 7 7 23 -11 23 -25z m250 17 c0 -9 9 -15 21 -15 18 0 19 -2 9 -15 -11
-13 -15 -12 -36 8 -27 26 -30 37 -9 37 8 0 15 -7 15 -15z m-1560 -5 c0 -5 -2
-10 -4 -10 -3 0 -8 5 -11 10 -3 6 -1 10 4 10 6 0 11 -4 11 -10z m310 -6 c0 -8
-4 -12 -10 -9 -5 3 -10 10 -10 16 0 5 5 9 10 9 6 0 10 -7 10 -16z m844 -22
c13 -22 40 -47 60 -56 37 -17 48 -36 22 -36 -8 0 -18 5 -21 10 -4 6 -10 8 -15
5 -5 -3 -11 4 -15 14 -3 11 -15 23 -26 26 -10 4 -19 15 -19 25 0 10 -10 20
-22 24 -19 5 -21 8 -8 16 8 5 16 10 17 10 2 0 14 -17 27 -38z m-1039 10 c-3
-3 -11 0 -18 7 -9 10 -8 11 6 5 10 -3 15 -9 12 -12z m90 8 c3 -5 1 -10 -4 -10
-6 0 -11 5 -11 10 0 6 2 10 4 10 3 0 8 -4 11 -10z m1309 -5 c-4 -8 -12 -15
-20 -15 -8 0 -14 7 -14 15 0 8 9 15 20 15 13 0 18 -5 14 -15z m221 5 c-3 -5
-13 -10 -21 -10 -8 0 -12 5 -9 10 3 6 13 10 21 10 8 0 12 -4 9 -10z m-1355
-20 c0 -5 -4 -12 -10 -15 -5 -3 -10 -4 -10 -1 0 2 -3 12 -6 20 -5 12 -2 15 10
10 9 -3 16 -10 16 -14z m400 4 c0 -17 -22 -14 -28 4 -2 7 3 12 12 12 9 0 16
-7 16 -16z m250 0 c0 -17 -22 -14 -28 4 -2 7 3 12 12 12 9 0 16 -7 16 -16z
m329 2 c7 -8 21 -12 31 -9 11 3 20 0 20 -6 0 -16 -33 -27 -38 -13 -2 7 -12 12
-22 12 -20 0 -33 13 -23 24 10 10 20 7 32 -8z m311 -1 c0 -8 -7 -15 -15 -15
-16 0 -20 12 -8 23 11 12 23 8 23 -8z m-1612 -20 c-3 -3 -9 2 -12 12 -6 14 -5
15 5 6 7 -7 10 -15 7 -18z m653 12 c-1 -12 -15 -9 -19 4 -3 6 1 10 8 8 6 -3
11 -8 11 -12z m189 3 c0 -5 -7 -10 -15 -10 -8 0 -15 5 -15 10 0 6 7 10 15 10
8 0 15 -4 15 -10z m896 -41 c20 -29 24 -43 16 -51 -13 -13 -42 6 -42 27 0 8
-6 15 -12 18 -10 3 -10 8 1 21 13 16 12 17 -15 10 -26 -7 -28 -6 -16 9 18 21
35 13 68 -34z m-1786 6 c0 -5 -5 -3 -10 5 -5 8 -10 20 -10 25 0 6 5 3 10 -5 5
-8 10 -19 10 -25z m260 19 c0 -14 -3 -14 -15 -4 -8 7 -15 14 -15 16 0 2 7 4
15 4 8 0 15 -7 15 -16z m220 0 c0 -8 -4 -12 -10 -9 -5 3 -10 10 -10 16 0 5 5
9 10 9 6 0 10 -7 10 -16z m594 -1 c3 -10 22 -29 41 -42 19 -13 32 -27 29 -32
-3 -5 4 -9 15 -9 12 0 21 -7 21 -16 0 -13 -3 -13 -18 -2 -51 36 -121 102 -116
110 9 14 22 9 28 -9z m532 -9 c-4 -9 2 -14 16 -14 17 0 18 -2 8 -15 -7 -8 -15
-15 -19 -15 -10 0 -31 52 -25 62 8 13 26 -2 20 -18z m-1436 1 c0 -8 -2 -15 -4
-15 -2 0 -6 7 -10 15 -3 8 -1 15 4 15 6 0 10 -7 10 -15z m250 -6 c0 -6 -4 -7
-10 -4 -5 3 -10 11 -10 16 0 6 5 7 10 4 6 -3 10 -11 10 -16z m400 6 c0 -8 -4
-15 -10 -15 -5 0 -10 7 -10 15 0 8 5 15 10 15 6 0 10 -7 10 -15z m125 -15 c-5
-8 -11 -8 -17 -2 -6 6 -7 16 -3 22 5 8 11 8 17 2 6 -6 7 -16 3 -22z m579 14
c3 -9 12 -14 19 -11 13 5 39 -38 29 -48 -13 -12 -31 -4 -25 12 4 11 3 14 -5 9
-7 -4 -15 -1 -18 8 -3 9 -12 16 -20 16 -8 0 -14 7 -14 15 0 20 26 19 34 -1z
m166 8 c0 -13 -12 -22 -22 -16 -10 6 -1 24 13 24 5 0 9 -4 9 -8z m-1370 -24
c0 -6 -6 -5 -15 2 -8 7 -15 14 -15 16 0 2 7 1 15 -2 8 -4 15 -11 15 -16z m440
-8 c0 -17 -2 -19 -14 -8 -14 13 -12 28 5 28 5 0 9 -9 9 -20z m713 0 c9 -11 17
-25 17 -30 0 -6 7 -10 15 -10 8 0 15 -4 15 -10 0 -5 -5 -10 -11 -10 -14 0 -44
30 -44 44 0 6 -7 11 -15 12 -27 2 -31 4 -25 14 10 16 29 12 48 -10z m-1243
-11 c0 -5 -4 -9 -10 -9 -5 0 -10 7 -10 16 0 8 5 12 10 9 6 -3 10 -10 10 -16z
m470 -1 c0 -16 -3 -19 -11 -11 -6 6 -8 16 -5 22 11 17 16 13 16 -11z m180 6
c0 -17 -22 -14 -28 4 -2 7 3 12 12 12 9 0 16 -7 16 -16z m130 6 c0 -5 9 -10
20 -10 11 0 20 -7 20 -15 0 -19 -14 -19 -30 0 -7 8 -16 13 -20 10 -4 -3 -13 2
-20 10 -10 13 -9 15 9 15 11 0 21 -4 21 -10z m330 -6 c0 -11 -5 -14 -16 -10
-9 3 -18 6 -20 6 -3 0 -2 5 1 10 10 16 35 12 35 -6z m57 -12 c-8 -8 -20 -11
-27 -7 -16 10 7 35 27 28 13 -5 13 -7 0 -21z m318 19 c7 -12 -12 -24 -25 -16
-11 7 -4 25 10 25 5 0 11 -4 15 -9z m-1331 -32 c-8 -13 -24 -1 -24 18 0 13 3
13 15 3 8 -7 12 -16 9 -21z m96 15 c0 -8 -4 -12 -10 -9 -5 3 -10 10 -10 16 0
5 5 9 10 9 6 0 10 -7 10 -16z m-310 -22 c0 -15 -2 -15 -10 -2 -13 20 -13 33 0
25 6 -3 10 -14 10 -23z m1494 7 c-7 -11 -34 -12 -34 -1 0 14 11 21 26 15 8 -3
11 -9 8 -14z m-1674 1 c0 -5 -4 -10 -10 -10 -5 0 -10 5 -10 10 0 6 5 10 10 10
6 0 10 -4 10 -10z m300 0 c0 -5 -4 -10 -10 -10 -5 0 -10 5 -10 10 0 6 5 10 10
10 6 0 10 -4 10 -10z m525 0 c3 -5 -1 -10 -9 -10 -8 0 -18 5 -21 10 -3 6 1 10
9 10 8 0 18 -4 21 -10z m125 -6 c0 -17 -22 -14 -28 4 -2 7 3 12 12 12 9 0 16
-7 16 -16z m-505 -4 c3 -5 2 -10 -4 -10 -5 0 -13 5 -16 10 -3 6 -2 10 4 10 5
0 13 -4 16 -10z m846 -3 c-1 -12 -15 -9 -19 4 -3 6 1 10 8 8 6 -3 11 -8 11
-12z m-1173 -22 c-3 -3 -9 2 -12 12 -6 14 -5 15 5 6 7 -7 10 -15 7 -18z m122
10 c7 -8 8 -15 2 -15 -5 0 -15 7 -22 15 -7 8 -8 15 -2 15 5 0 15 -7 22 -15z
m120 -6 c0 -5 -4 -9 -10 -9 -5 0 -10 7 -10 16 0 8 5 12 10 9 6 -3 10 -10 10
-16z m410 11 c0 -13 -11 -13 -30 0 -12 8 -11 10 8 10 12 0 22 -4 22 -10z m115
-18 c-8 -8 -25 10 -19 20 4 6 9 5 15 -3 4 -7 6 -15 4 -17z m113 10 c5 -17 -13
-15 -27 2 -10 12 -9 14 5 12 10 -2 20 -8 22 -14z m352 2 c0 -17 -22 -14 -28 4
-2 7 3 12 12 12 9 0 16 -7 16 -16z m100 6 c0 -5 -6 -10 -14 -10 -8 0 -18 5
-21 10 -3 6 3 10 14 10 12 0 21 -4 21 -10z m166 -5 c-10 -8 -23 -12 -28 -9
-14 9 2 24 25 24 21 -1 21 -1 3 -15z m-1126 1 c0 -3 -4 -8 -10 -11 -5 -3 -10
-1 -10 4 0 6 5 11 10 11 6 0 10 -2 10 -4z m207 -18 c-3 -8 -6 -5 -6 6 -1 11 2
17 5 13 3 -3 4 -12 1 -19z m393 12 c0 -5 -4 -10 -9 -10 -6 0 -13 5 -16 10 -3
6 1 10 9 10 9 0 16 -4 16 -10z m300 -5 c0 -9 7 -18 15 -21 8 -4 13 -10 10 -14
-3 -4 7 -19 21 -33 14 -14 21 -28 16 -31 -12 -7 -75 61 -68 73 3 5 -1 12 -10
15 -8 3 -12 10 -9 16 9 15 25 12 25 -5z m294 0 c-4 -9 0 -15 8 -15 16 0 55
-36 98 -89 14 -17 37 -43 53 -58 15 -14 27 -32 27 -39 0 -7 9 -16 20 -19 26
-8 26 -25 0 -25 -11 0 -23 7 -27 16 -6 15 -44 61 -109 130 -17 18 -29 36 -26
39 3 3 -1 5 -8 5 -13 0 -60 49 -60 63 0 4 7 7 15 7 9 0 12 -6 9 -15z m-860
-11 c4 -10 1 -14 -6 -12 -15 5 -23 28 -10 28 5 0 13 -7 16 -16z m-647 -16 c-3
-8 -6 -5 -6 6 -1 11 2 17 5 13 3 -3 4 -12 1 -19z m118 11 c11 -17 -1 -21 -15
-4 -8 9 -8 15 -2 15 6 0 14 -5 17 -11z m645 1 c0 -5 -7 -10 -15 -10 -8 0 -15
5 -15 10 0 6 7 10 15 10 8 0 15 -4 15 -10z m95 0 c3 -5 2 -10 -4 -10 -5 0 -13
5 -16 10 -3 6 -2 10 4 10 5 0 13 -4 16 -10z m95 -6 c0 -8 -4 -12 -10 -9 -5 3
-10 10 -10 16 0 5 5 9 10 9 6 0 10 -7 10 -16z m115 6 c3 -5 2 -10 -4 -10 -5 0
-13 5 -16 10 -3 6 -2 10 4 10 5 0 13 -4 16 -10z m225 6 c0 -2 -7 -6 -15 -10
-8 -3 -15 -1 -15 4 0 6 7 10 15 10 8 0 15 -2 15 -4z m78 -7 c-2 -6 -8 -10 -13
-10 -5 0 -11 4 -13 10 -2 6 4 11 13 11 9 0 15 -5 13 -11z m97 1 c-3 -5 -13
-10 -21 -10 -8 0 -14 5 -14 10 0 6 9 10 21 10 11 0 17 -4 14 -10z m-354 -21
c-2 -8 -3 -22 -3 -31 0 -10 -6 -18 -14 -18 -16 0 -19 16 -5 24 5 3 7 16 4 27
-5 16 -2 20 8 17 8 -3 12 -12 10 -19z m-913 -25 c-10 -10 -28 6 -28 24 0 15 1
15 17 -1 9 -9 14 -19 11 -23z m387 26 c3 -5 2 -10 -4 -10 -5 0 -13 5 -16 10
-3 6 -2 10 4 10 5 0 13 -4 16 -10z m420 -18 c-8 -8 -25 10 -19 20 4 6 9 5 15
-3 4 -7 6 -15 4 -17z m165 7 c0 -11 -27 -12 -34 0 -3 4 -3 11 0 14 8 8 34 -3
34 -14z m145 11 c3 -6 -1 -13 -10 -16 -19 -8 -30 0 -20 15 8 14 22 14 30 1z
m95 -10 c10 -10 15 -22 10 -25 -10 -6 -50 24 -50 37 0 14 20 8 40 -12z m-1565
0 c3 -5 1 -10 -4 -10 -6 0 -11 5 -11 10 0 6 2 10 4 10 3 0 8 -4 11 -10z m855
0 c0 -5 -7 -10 -15 -10 -8 0 -15 5 -15 10 0 6 7 10 15 10 8 0 15 -4 15 -10z
m100 0 c0 -5 -4 -10 -9 -10 -6 0 -13 5 -16 10 -3 6 1 10 9 10 9 0 16 -4 16
-10z m100 0 c0 -5 -4 -10 -10 -10 -5 0 -10 5 -10 10 0 6 5 10 10 10 6 0 10 -4
10 -10z m569 -11 c-7 -4 -17 -5 -22 -2 -5 3 -3 9 4 14 7 4 17 5 22 2 5 -3 3
-9 -4 -14z m-411 -14 c-3 -3 -13 -2 -22 1 -14 5 -15 9 -4 15 13 8 36 -6 26
-16z m-803 5 c3 -5 2 -10 -4 -10 -5 0 -13 5 -16 10 -3 6 -2 10 4 10 5 0 13 -4
16 -10z m375 0 c0 -5 -2 -10 -4 -10 -3 0 -8 5 -11 10 -3 6 -1 10 4 10 6 0 11
-4 11 -10z m110 -6 c0 -8 -4 -12 -10 -9 -5 3 -10 10 -10 16 0 5 5 9 10 9 6 0
10 -7 10 -16z m95 6 c3 -5 -1 -10 -10 -10 -9 0 -13 5 -10 10 3 6 8 10 10 10 2
0 7 -4 10 -10z m115 -10 c0 -4 -9 -6 -21 -3 -15 4 -17 8 -8 14 14 8 29 3 29
-11z m395 10 c-3 -5 -13 -10 -21 -10 -8 0 -14 5 -14 10 0 6 9 10 21 10 11 0
17 -4 14 -10z m-1450 -11 c11 -16 1 -19 -13 -3 -7 8 -8 14 -3 14 5 0 13 -5 16
-11z m205 -17 c0 -15 -2 -15 -10 -2 -13 20 -13 33 0 25 6 -3 10 -14 10 -23z
m1083 22 c3 -3 3 -12 0 -20 -4 -10 -8 -11 -18 -1 -7 7 -11 15 -8 20 5 9 17 9
26 1z m322 -8 c8 -7 11 -16 8 -20 -4 -3 -1 -6 6 -6 15 0 46 -29 106 -100 25
-30 54 -58 63 -62 15 -6 15 -7 -1 -7 -11 -1 -15 -6 -11 -12 3 -6 -5 -4 -19 5
-14 10 -28 28 -31 41 -3 13 -15 26 -25 30 -10 3 -24 19 -31 35 -7 17 -16 30
-20 30 -8 0 -80 69 -80 76 0 9 22 3 35 -10z m-1465 -6 c0 -5 -4 -10 -9 -10 -6
0 -13 5 -16 10 -3 6 1 10 9 10 9 0 16 -4 16 -10z m260 0 c0 -5 -2 -10 -4 -10
-3 0 -8 5 -11 10 -3 6 -1 10 4 10 6 0 11 -4 11 -10z m270 0 c0 -5 -2 -10 -4
-10 -3 0 -8 5 -11 10 -3 6 -1 10 4 10 6 0 11 -4 11 -10z m430 0 c0 -5 -4 -10
-9 -10 -6 0 -13 5 -16 10 -3 6 1 10 9 10 9 0 16 -4 16 -10z m-1050 -15 c0 -8
-2 -15 -4 -15 -2 0 -6 7 -10 15 -3 8 -1 15 4 15 6 0 10 -7 10 -15z m254 -6
c-3 -5 -10 -7 -15 -3 -5 3 -7 10 -3 15 3 5 10 7 15 3 5 -3 7 -10 3 -15z m476
11 c0 -5 -4 -10 -9 -10 -6 0 -13 5 -16 10 -3 6 1 10 9 10 9 0 16 -4 16 -10z
m100 -6 c0 -14 -3 -14 -15 -4 -8 7 -15 14 -15 16 0 2 7 4 15 4 8 0 15 -7 15
-16z m100 6 c0 -5 -7 -7 -15 -4 -8 4 -15 8 -15 10 0 2 7 4 15 4 8 0 15 -4 15
-10z m266 -20 c8 0 14 -7 14 -15 0 -8 7 -15 16 -15 10 0 14 -6 10 -15 -4 -10
1 -15 14 -15 11 0 20 -4 20 -8 0 -5 11 -14 25 -20 14 -6 25 -16 25 -22 0 -17
-82 39 -122 83 -20 22 -34 46 -30 51 4 7 8 4 10 -6 2 -10 10 -18 18 -18z m224
26 c0 -11 -19 -15 -25 -6 -3 5 1 10 9 10 9 0 16 -2 16 -4z m-330 -16 c0 -5 -7
-10 -15 -10 -8 0 -15 5 -15 10 0 6 7 10 15 10 8 0 15 -4 15 -10z m175 -9 c-3
-6 -11 -8 -17 -5 -6 4 -5 9 3 15 16 10 23 4 14 -10z m190 9 c-4 -6 -1 -18 7
-27 7 -9 12 -19 10 -22 -2 -3 4 -10 14 -16 10 -5 37 -29 61 -52 24 -24 47 -43
53 -43 5 0 10 -5 10 -12 0 -6 7 -19 16 -29 9 -10 14 -23 12 -30 -3 -8 -12 -4
-26 11 -13 14 -20 30 -18 37 3 7 -1 13 -9 13 -8 0 -19 9 -25 20 -6 11 -17 20
-24 20 -7 0 -19 11 -26 25 -7 13 -22 27 -32 31 -35 11 -59 84 -27 84 6 0 7 -5
4 -10z m-1257 -18 c6 -18 -15 -14 -22 4 -4 10 -1 14 6 12 6 -2 14 -10 16 -16z
m472 8 c0 -5 -4 -10 -10 -10 -5 0 -10 5 -10 10 0 6 5 10 10 10 6 0 10 -4 10
-10z m201 -3 c-1 -12 -15 -9 -19 4 -3 6 1 10 8 8 6 -3 11 -8 11 -12z m119 -2
c0 -9 -6 -12 -15 -9 -8 4 -15 10 -15 15 0 5 7 9 15 9 8 0 15 -7 15 -15z m374
0 c8 -9 19 -16 23 -17 19 -2 32 -11 28 -18 -6 -10 -85 27 -85 40 0 15 17 12
34 -5z m-1304 -10 c0 -8 -2 -15 -4 -15 -2 0 -6 7 -10 15 -3 8 -1 15 4 15 6 0
10 -7 10 -15z m718 -4 c3 -8 -1 -12 -9 -9 -7 2 -15 10 -17 17 -3 8 1 12 9 9 7
-2 15 -10 17 -17z m352 9 c0 -5 -7 -10 -15 -10 -8 0 -15 5 -15 10 0 6 7 10 15
10 8 0 15 -4 15 -10z m-1000 -10 c0 -5 -2 -10 -4 -10 -3 0 -8 5 -11 10 -3 6
-1 10 4 10 6 0 11 -4 11 -10z m800 -11 c0 -6 -4 -7 -10 -4 -5 3 -10 11 -10 16
0 6 5 7 10 4 6 -3 10 -11 10 -16z m98 2 c3 -8 -1 -12 -9 -9 -7 2 -15 10 -17
17 -3 8 1 12 9 9 7 -2 15 -10 17 -17z m272 9 c0 -5 -7 -10 -15 -10 -8 0 -15 5
-15 10 0 6 7 10 15 10 8 0 15 -4 15 -10z m-483 -26 c-9 -9 -28 6 -21 18 4 6
10 6 17 -1 6 -6 8 -13 4 -17z m-597 -5 c0 -6 -4 -7 -10 -4 -5 3 -10 11 -10 16
0 6 5 7 10 4 6 -3 10 -11 10 -16z m750 11 c0 -5 -5 -10 -11 -10 -5 0 -7 5 -4
10 3 6 8 10 11 10 2 0 4 -4 4 -10z m100 0 c0 -5 -4 -10 -10 -10 -5 0 -10 5
-10 10 0 6 5 10 10 10 6 0 10 -4 10 -10z m86 -5 c4 -8 10 -13 14 -10 5 3 11 1
15 -5 11 -18 -22 -10 -40 10 -11 12 -13 20 -6 20 6 0 14 -7 17 -15z m-1111 -6
c11 -16 1 -19 -13 -3 -7 8 -8 14 -3 14 5 0 13 -5 16 -11z m125 -5 c0 -8 -4
-12 -10 -9 -5 3 -10 10 -10 16 0 5 5 9 10 9 6 0 10 -7 10 -16z m485 6 c3 -5 1
-10 -4 -10 -6 0 -11 5 -11 10 0 6 2 10 4 10 3 0 8 -4 11 -10z m210 0 c3 -5 1
-10 -4 -10 -6 0 -11 5 -11 10 0 6 2 10 4 10 3 0 8 -4 11 -10z m460 0 c-3 -5
-10 -10 -16 -10 -5 0 -9 5 -9 10 0 6 7 10 16 10 8 0 12 -4 9 -10z m-1215 -10
c0 -5 -2 -10 -4 -10 -3 0 -8 5 -11 10 -3 6 -1 10 4 10 6 0 11 -4 11 -10z m455
0 c3 -5 1 -10 -4 -10 -6 0 -11 5 -11 10 0 6 2 10 4 10 3 0 8 -4 11 -10z m195
-11 c0 -6 -4 -7 -10 -4 -5 3 -10 11 -10 16 0 6 5 7 10 4 6 -3 10 -11 10 -16z
m155 1 c3 -5 -1 -10 -9 -10 -9 0 -16 5 -16 10 0 6 4 10 9 10 6 0 13 -4 16 -10z
m105 0 c0 -5 -7 -7 -15 -4 -8 4 -15 8 -15 10 0 2 7 4 15 4 8 0 15 -4 15 -10z
m93 -4 c25 -19 21 -26 -8 -13 -14 7 -25 15 -25 20 0 11 13 8 33 -7z m272 4 c6
0 11 -12 12 -27 0 -15 6 -29 12 -31 16 -5 14 -22 -3 -22 -8 0 -21 18 -30 41
-9 22 -20 37 -25 34 -5 -3 -13 0 -17 6 -5 9 0 10 17 6 13 -4 29 -7 34 -7z m50
0 c-3 -5 8 -16 25 -25 16 -8 30 -22 30 -31 0 -8 15 -21 34 -29 18 -8 36 -23
39 -35 3 -11 19 -28 36 -37 37 -21 39 -29 8 -28 -32 0 -57 23 -57 51 0 17 -9
26 -34 35 -19 7 -34 15 -32 18 3 7 -31 41 -36 36 -2 -2 -11 10 -20 26 -15 25
-15 29 -2 29 8 0 13 -4 9 -10z m-825 -10 c0 -5 -2 -10 -4 -10 -3 0 -8 5 -11
10 -3 6 -1 10 4 10 6 0 11 -4 11 -10z m210 -11 c0 -6 -4 -7 -10 -4 -5 3 -10
11 -10 16 0 6 5 7 10 4 6 -3 10 -11 10 -16z m-646 -4 c3 -8 1 -15 -4 -15 -6 0
-10 7 -10 15 0 8 2 15 4 15 2 0 6 -7 10 -15z m66 5 c0 -5 -2 -10 -4 -10 -3 0
-8 5 -11 10 -3 6 -1 10 4 10 6 0 11 -4 11 -10z m710 0 c0 -5 -4 -10 -10 -10
-5 0 -10 5 -10 10 0 6 5 10 10 10 6 0 10 -4 10 -10z m100 0 c0 -5 -7 -10 -16
-10 -8 0 -12 5 -9 10 3 6 10 10 16 10 5 0 9 -4 9 -10z m155 0 c3 -5 -1 -10 -9
-10 -8 0 -18 5 -21 10 -3 6 1 10 9 10 8 0 18 -4 21 -10z m-448 -22 c-3 -8 -6
-5 -6 6 -1 11 2 17 5 13 3 -3 4 -12 1 -19z m113 2 c0 -5 -2 -10 -4 -10 -3 0
-8 5 -11 10 -3 6 -1 10 4 10 6 0 11 -4 11 -10z m115 0 c3 -5 2 -10 -4 -10 -5
0 -13 5 -16 10 -3 6 -2 10 4 10 5 0 13 -4 16 -10z m95 -10 c0 -5 -2 -10 -4
-10 -3 0 -8 5 -11 10 -3 6 -1 10 4 10 6 0 11 -4 11 -10z m67 -12 c-3 -8 -6 -5
-6 6 -1 11 2 17 5 13 3 -3 4 -12 1 -19z m-1069 -13 c-3 -3 -9 2 -12 12 -6 14
-5 15 5 6 7 -7 10 -15 7 -18z m122 4 c0 -6 -4 -7 -10 -4 -5 3 -10 11 -10 16 0
6 5 7 10 4 6 -3 10 -11 10 -16z m50 0 c0 -6 -4 -7 -10 -4 -5 3 -10 11 -10 16
0 6 5 7 10 4 6 -3 10 -11 10 -16z m1105 -16 c7 -7 24 -15 39 -19 14 -3 23 -10
20 -16 -3 -5 -12 -4 -21 4 -9 7 -17 11 -19 8 -7 -10 -44 31 -43 47 0 14 2 15
6 3 4 -8 12 -20 18 -27z m-335 17 c0 -5 -4 -10 -10 -10 -5 0 -10 5 -10 10 0 6
5 10 10 10 6 0 10 -4 10 -10z m170 -6 c0 -2 -7 -4 -15 -4 -8 0 -15 4 -15 10 0
5 7 7 15 4 8 -4 15 -8 15 -10z m-1220 -4 c0 -5 -2 -10 -4 -10 -3 0 -8 5 -11
10 -3 6 -1 10 4 10 6 0 11 -4 11 -10z m695 0 c3 -5 1 -10 -4 -10 -6 0 -11 5
-11 10 0 6 2 10 4 10 3 0 8 -4 11 -10z m190 0 c3 -5 1 -10 -4 -10 -6 0 -11 5
-11 10 0 6 2 10 4 10 3 0 8 -4 11 -10z m100 0 c3 -5 -1 -10 -9 -10 -9 0 -16 5
-16 10 0 6 4 10 9 10 6 0 13 -4 16 -10z m145 -6 c0 -8 -4 -12 -10 -9 -5 3 -10
10 -10 16 0 5 5 9 10 9 6 0 10 -7 10 -16z m198 -1 c16 -16 16 -16 -1 -10 -10
4 -23 7 -28 7 -6 0 -7 5 -4 10 9 14 14 13 33 -7z m146 2 c-4 -8 -8 -15 -10
-15 -2 0 -4 7 -4 15 0 8 4 15 10 15 5 0 7 -7 4 -15z m-404 -11 c0 -8 -5 -12
-10 -9 -6 4 -8 11 -5 16 9 14 15 11 15 -7z m-930 -4 c0 -5 -2 -10 -4 -10 -3 0
-8 5 -11 10 -3 6 -1 10 4 10 6 0 11 -4 11 -10z m65 0 c3 -5 -1 -10 -9 -10 -9
0 -16 5 -16 10 0 6 4 10 9 10 6 0 13 -4 16 -10z m65 -11 c0 -6 -4 -7 -10 -4
-5 3 -10 11 -10 16 0 6 5 7 10 4 6 -3 10 -11 10 -16z m890 11 c0 -5 -2 -10 -4
-10 -3 0 -8 5 -11 10 -3 6 -1 10 4 10 6 0 11 -4 11 -10z m105 -10 c10 -11 13
-20 7 -20 -7 0 -12 4 -12 8 0 5 -10 14 -22 20 -16 7 -18 11 -7 11 9 1 24 -8
34 -19z m286 -48 c5 -13 18 -26 29 -29 11 -3 18 -9 15 -13 -11 -17 -47 4 -60
35 -7 19 -23 38 -34 45 -12 6 -19 15 -16 20 8 13 55 -29 66 -58z m-631 54 c0
-11 -19 -15 -25 -6 -3 5 1 10 9 10 9 0 16 -2 16 -4z m90 -6 c0 -5 -4 -10 -10
-10 -5 0 -10 5 -10 10 0 6 5 10 10 10 6 0 10 -4 10 -10z m195 -20 c3 -11 11
-20 17 -20 6 0 8 -3 5 -7 -8 -7 -47 25 -47 39 0 16 19 8 25 -12z m-255 0 c0
-5 -2 -10 -4 -10 -3 0 -8 5 -11 10 -3 6 -1 10 4 10 6 0 11 -4 11 -10z m434
-44 c31 -62 33 -78 5 -42 -18 23 -25 40 -28 69 -1 4 -6 6 -12 5 -6 -2 -13 2
-16 8 -2 6 3 11 11 11 8 0 26 -23 40 -51z m106 17 c0 -8 14 -28 31 -44 17 -16
28 -33 24 -39 -4 -6 -21 7 -40 32 -19 23 -31 46 -29 50 3 4 0 8 -5 8 -6 0 -11
7 -11 16 0 14 3 14 15 4 8 -7 15 -19 15 -27z m-1320 17 c0 -5 -2 -10 -4 -10
-3 0 -8 5 -11 10 -3 6 -1 10 4 10 6 0 11 -4 11 -10z m870 0 c0 -5 -4 -10 -9
-10 -6 0 -13 5 -16 10 -3 6 1 10 9 10 9 0 16 -4 16 -10z m100 0 c0 -5 -5 -10
-11 -10 -5 0 -7 5 -4 10 3 6 8 10 11 10 2 0 4 -4 4 -10z m-345 -20 c3 -5 1
-10 -4 -10 -6 0 -11 5 -11 10 0 6 2 10 4 10 3 0 8 -4 11 -10z m105 6 c0 -11
-19 -15 -25 -6 -3 5 1 10 9 10 9 0 16 -2 16 -4z m80 -6 c0 -5 -4 -10 -10 -10
-5 0 -10 5 -10 10 0 6 5 10 10 10 6 0 10 -4 10 -10z m340 -17 c0 -13 -3 -13
-15 -3 -8 7 -15 16 -15 21 0 5 7 6 15 3 8 -4 15 -13 15 -21z m130 -10 c14 -21
33 -46 43 -56 10 -10 15 -22 12 -28 -8 -12 -25 -2 -25 16 0 7 -3 15 -7 17 -10
4 -63 74 -63 82 0 16 18 2 40 -31z m-755 17 c3 -5 1 -10 -4 -10 -6 0 -11 5
-11 10 0 6 2 10 4 10 3 0 8 -4 11 -10z m-515 -10 c0 -5 -2 -10 -4 -10 -3 0 -8
5 -11 10 -3 6 -1 10 4 10 6 0 11 -4 11 -10z m840 0 c0 -5 -2 -10 -4 -10 -3 0
-8 5 -11 10 -3 6 -1 10 4 10 6 0 11 -4 11 -10z m204 -49 c-6 -7 -44 31 -44 43
0 6 11 -1 24 -14 13 -14 22 -27 20 -29z m-944 29 c0 -5 -2 -10 -4 -10 -3 0 -8
5 -11 10 -3 6 -1 10 4 10 6 0 11 -4 11 -10z m680 0 c0 -5 -4 -10 -10 -10 -5 0
-10 5 -10 10 0 6 5 10 10 10 6 0 10 -4 10 -10z m322 -7 c10 -9 18 -22 18 -30
0 -8 12 -25 27 -39 20 -19 24 -27 15 -36 -9 -9 -12 -9 -12 2 0 7 -9 23 -19 34
-11 12 -21 28 -23 36 -2 8 -12 23 -22 33 -10 9 -15 17 -11 17 5 0 17 -7 27
-17z m-1067 -3 c3 -5 1 -10 -4 -10 -6 0 -11 5 -11 10 0 6 2 10 4 10 3 0 8 -4
11 -10z m1149 -39 c-7 -7 -34 21 -28 31 3 5 12 1 19 -9 7 -10 12 -20 9 -22z
m-419 19 c3 -5 1 -10 -4 -10 -6 0 -11 5 -11 10 0 6 2 10 4 10 3 0 8 -4 11 -10z
m124 -34 c-9 -8 -10 -7 -5 7 3 10 7 24 7 30 1 7 3 4 6 -7 3 -10 -1 -23 -8 -30z
m119 14 c7 -11 9 -20 4 -20 -4 0 -13 9 -20 20 -7 11 -9 20 -4 20 4 0 13 -9 20
-20z m-61 -16 c-3 -3 -12 -4 -19 -1 -8 3 -5 6 6 6 11 1 17 -2 13 -5z m275 -24
c13 -22 14 -30 4 -30 -11 0 -36 39 -36 55 0 15 17 1 32 -25z m42 24 c9 -3 16
-12 16 -20 0 -20 -13 -17 -28 6 -13 22 -12 23 12 14z m-293 -36 c11 -21 11
-22 -4 -9 -10 7 -17 17 -17 22 0 15 9 10 21 -13z m154 -35 c4 -15 2 -23 -6
-23 -7 0 -9 3 -6 6 3 4 0 16 -8 28 -8 11 -15 25 -15 30 0 16 27 -17 35 -41z
m-528 5 c-3 -8 -6 -5 -6 6 -1 11 2 17 5 13 3 -3 4 -12 1 -19z m413 -16 c0 -15
-2 -15 -10 -2 -13 20 -13 33 0 25 6 -3 10 -14 10 -23z m185 19 c3 -5 1 -12 -5
-16 -5 -3 -10 -1 -10 5 0 6 -5 8 -12 4 -7 -4 -8 -3 -4 4 9 14 23 15 31 3z
m-110 -31 c3 -5 1 -10 -4 -10 -6 0 -11 5 -11 10 0 6 2 10 4 10 3 0 8 -4 11
-10z m-175 -22 c0 -6 8 -21 18 -32 17 -20 16 -20 -3 -6 -33 25 -46 50 -25 50
6 0 10 -5 10 -12z m98 -43 c-3 -3 -9 2 -12 12 -6 14 -5 15 5 6 7 -7 10 -15 7
-18z"/>
<path d="M2845 1890 c-9 -15 4 -30 26 -30 23 0 26 25 3 34 -21 8 -22 8 -29 -4z"/>
<path d="M2906 1875 c-3 -8 -1 -17 4 -20 6 -4 10 -15 10 -26 0 -11 -4 -18 -9
-15 -5 4 -8 -2 -7 -11 3 -21 46 -52 46 -33 0 9 5 8 18 -3 26 -24 51 -22 45 3
-3 11 -8 21 -12 21 -3 1 -16 3 -27 4 -12 1 -26 5 -33 9 -14 9 -14 33 0 38 13
4 2 35 -16 42 -7 2 -16 -2 -19 -9z"/>
<path d="M2964 1857 c-8 -23 23 -54 39 -38 8 8 6 17 -10 33 -20 19 -23 20 -29
5z"/>
<path d="M3025 1830 c-10 -16 16 -41 35 -35 10 3 35 -4 55 -15 42 -24 83 -20
49 4 -10 8 -23 12 -30 9 -6 -2 -14 3 -17 11 -4 10 -18 16 -37 16 -16 0 -30 5
-30 10 0 13 -17 13 -25 0z"/>
<path d="M3032 1754 c2 -24 8 -29 31 -30 16 -1 33 -7 37 -14 4 -7 15 -10 24
-7 24 10 2 50 -23 42 -10 -3 -29 4 -45 16 l-28 22 4 -29z"/>
<path d="M3185 1760 c-3 -6 1 -13 10 -16 19 -8 30 0 20 15 -8 14 -22 14 -30 1z"/>
<path d="M3150 1711 c0 -24 28 -35 47 -19 12 10 13 7 8 -15 -6 -21 -3 -28 11
-34 10 -4 19 -2 22 5 4 13 23 17 21 5 -4 -27 3 -35 26 -31 21 4 25 1 25 -18 0
-16 6 -24 16 -24 9 0 23 -8 30 -17 10 -14 17 -16 30 -7 10 6 19 16 20 22 2 8
0 8 -3 2 -6 -14 -33 7 -33 26 0 8 -6 11 -15 8 -9 -4 -24 3 -35 16 -11 13 -20
19 -20 14 0 -5 -5 -1 -11 9 -5 9 -21 17 -34 17 -13 0 -28 7 -33 16 -5 9 -23
23 -41 30 -28 12 -31 11 -31 -5z"/>
<path d="M4095 3920 c10 -11 20 -20 23 -20 3 0 -3 9 -13 20 -10 11 -20 20 -23
20 -3 0 3 -9 13 -20z"/>
<path d="M3896 3922 c-3 -5 1 -9 9 -9 8 0 15 4 15 9 0 4 -4 8 -9 8 -6 0 -12
-4 -15 -8z"/>
<path d="M3940 3900 c-12 -11 -28 -17 -34 -13 -7 4 -7 1 1 -7 9 -10 18 -8 43
14 17 14 27 26 22 26 -5 0 -19 -9 -32 -20z"/>
<path d="M3815 3840 c3 -5 8 -10 11 -10 2 0 4 5 4 10 0 6 -5 10 -11 10 -5 0
-7 -4 -4 -10z"/>
<path d="M3958 3833 c7 -3 16 -2 19 1 4 3 -2 6 -13 5 -11 0 -14 -3 -6 -6z"/>
<path d="M4020 3821 c-12 -24 -13 -51 -1 -51 5 0 9 6 8 13 -1 32 4 46 21 50
16 4 16 5 0 6 -10 0 -22 -8 -28 -18z"/>
<path d="M3766 3806 c-20 -17 -25 -26 -16 -31 7 -4 16 -1 21 6 6 11 13 11 27
3 20 -13 45 0 50 26 2 11 -2 10 -12 -3 -11 -15 -19 -16 -33 -8 -10 6 -12 11
-5 11 6 0 12 5 12 10 0 15 -12 11 -44 -14z"/>
<path d="M3910 3799 c-19 -3 -31 -7 -27 -8 4 0 3 -10 -4 -22 -7 -13 -17 -19
-29 -16 -14 3 -17 1 -13 -11 4 -10 2 -13 -5 -8 -7 4 -12 2 -12 -3 0 -16 11
-13 45 9 17 11 30 25 30 32 0 9 11 12 33 10 17 -2 32 1 32 7 0 15 -12 18 -50
10z"/>
<path d="M4186 3797 c3 -10 9 -15 12 -12 3 3 0 11 -7 18 -10 9 -11 8 -5 -6z"/>
<path d="M3991 3784 c0 -11 3 -14 6 -6 3 7 2 16 -1 19 -3 4 -6 -2 -5 -13z"/>
<path d="M3693 3741 c-31 -29 -33 -41 -6 -41 7 0 13 7 13 15 0 8 6 14 13 13 6
-2 11 3 10 10 -2 6 4 12 13 12 8 0 12 5 9 10 -9 15 -17 12 -52 -19z"/>
<path d="M3784 3756 c-3 -9 -12 -16 -19 -16 -8 0 -17 -4 -20 -10 -3 -5 2 -10
12 -10 18 0 49 37 39 47 -3 3 -8 -2 -12 -11z"/>
<path d="M3878 3723 c7 -3 16 -2 19 1 4 3 -2 6 -13 5 -11 0 -14 -3 -6 -6z"/>
<path d="M3793 3704 c0 -7 4 -14 8 -14 4 0 15 -3 25 -7 22 -8 10 13 -15 26
-13 7 -18 6 -18 -5z"/>
<path d="M3920 3710 c0 -5 5 -10 10 -10 6 0 10 5 10 10 0 6 -4 10 -10 10 -5 0
-10 -4 -10 -10z"/>
<path d="M3736 3695 c4 -8 12 -15 20 -15 8 0 11 6 8 15 -4 8 -12 15 -20 15 -8
0 -11 -6 -8 -15z"/>
<path d="M3844 3675 c-12 -25 -9 -35 12 -35 6 0 11 8 10 17 0 10 9 19 24 23
l25 6 -25 7 c-35 9 -34 10 -46 -18z"/>
<path d="M3970 3689 c0 -5 5 -7 10 -4 6 3 10 8 10 11 0 2 -4 4 -10 4 -5 0 -10
-5 -10 -11z"/>
<path d="M4000 3689 c0 -5 5 -7 10 -4 6 3 10 8 10 11 0 2 -4 4 -10 4 -5 0 -10
-5 -10 -11z"/>
<path d="M3705 3680 c-8 -13 -1 -24 14 -19 6 3 7 10 2 18 -6 10 -10 10 -16 1z"/>
<path d="M3786 3672 c-3 -6 -1 -14 5 -17 15 -10 25 3 12 16 -7 7 -13 7 -17 1z"/>
<path d="M3935 3670 c3 -5 8 -10 11 -10 2 0 4 5 4 10 0 6 -5 10 -11 10 -5 0
-7 -4 -4 -10z"/>
<path d="M4144 3658 c-4 -5 3 -20 15 -32 12 -12 21 -28 21 -34 0 -6 16 -44 36
-84 19 -41 33 -83 31 -95 -2 -12 -1 -21 3 -18 3 2 14 -9 23 -24 13 -23 22 -27
44 -23 16 2 34 11 41 20 11 14 12 14 12 -1 0 -9 6 -17 14 -17 15 0 11 35 -7
58 -7 8 -5 12 7 12 20 0 20 6 -2 47 -9 18 -35 66 -56 108 -21 41 -43 75 -47
75 -14 0 -11 -18 11 -60 11 -22 20 -46 20 -55 0 -8 5 -15 10 -15 6 0 10 -8 10
-18 0 -10 5 -23 12 -30 6 -6 9 -14 6 -17 -8 -9 -64 76 -72 110 -11 45 -54 89
-93 96 -18 3 -36 2 -39 -3z m90 -64 c9 -8 16 -25 16 -37 -1 -20 -2 -20 -25 8
-14 17 -25 33 -25 38 0 12 18 8 34 -9z m64 -117 c19 -23 26 -67 10 -67 -12 0
-48 57 -48 75 0 10 28 4 38 -8z m57 -58 c10 -30 2 -32 -12 -3 -6 13 -7 24 -3
24 5 0 12 -9 15 -21z"/>
<path d="M3670 3650 c0 -5 7 -10 16 -10 8 0 12 5 9 10 -3 6 -10 10 -16 10 -5
0 -9 -4 -9 -10z"/>
<path d="M3747 3647 c-3 -7 5 -12 19 -12 29 0 29 1 5 14 -14 8 -20 7 -24 -2z"/>
<path d="M3970 3650 c0 -5 5 -10 11 -10 5 0 7 5 4 10 -3 6 -8 10 -11 10 -2 0
-4 -4 -4 -10z"/>
<path d="M3890 3646 c0 -2 7 -7 16 -10 8 -3 12 -2 9 4 -6 10 -25 14 -25 6z"/>
<path d="M4020 3630 c0 -5 5 -10 11 -10 5 0 7 5 4 10 -3 6 -8 10 -11 10 -2 0
-4 -4 -4 -10z"/>
<path d="M3710 3620 c0 -6 7 -10 15 -10 8 0 15 2 15 4 0 2 -7 6 -15 10 -8 3
-15 1 -15 -4z"/>
<path d="M3948 3623 c7 -3 16 -2 19 1 4 3 -2 6 -13 5 -11 0 -14 -3 -6 -6z"/>
<path d="M3797 3604 c2 -7 20 -11 43 -10 48 1 36 20 -14 22 -23 0 -33 -3 -29
-12z"/>
<path d="M3891 3608 c-1 -10 5 -18 13 -18 8 0 21 -3 30 -6 9 -3 16 -1 16 5 0
6 -11 11 -24 11 -13 0 -27 6 -29 13 -3 7 -6 5 -6 -5z"/>
<path d="M3750 3602 c0 -4 10 -9 22 -9 18 -2 20 0 8 7 -18 12 -30 13 -30 2z"/>
<path d="M3985 3600 c3 -5 10 -10 16 -10 5 0 9 5 9 10 0 6 -7 10 -16 10 -8 0
-12 -4 -9 -10z"/>
<path d="M3620 3589 c0 -6 -9 -8 -20 -4 -11 3 -20 2 -20 -3 0 -15 23 -20 43
-10 9 5 23 6 30 2 8 -5 7 -2 -2 9 -15 19 -31 22 -31 6z"/>
<path d="M3490 3575 c-7 -8 -19 -15 -27 -15 -8 0 -13 -5 -11 -11 2 -6 7 -10
11 -10 4 1 14 1 23 1 11 0 14 5 10 16 -4 11 -1 14 13 12 21 -3 29 16 8 20 -8
2 -20 -4 -27 -13z"/>
<path d="M3735 3570 c-3 -5 -5 -10 -3 -11 29 -7 36 -5 31 7 -6 16 -19 18 -28
4z"/>
<path d="M3970 3565 c7 -8 16 -15 21 -15 5 0 6 7 3 15 -4 8 -13 15 -21 15 -13
0 -13 -3 -3 -15z"/>
<path d="M3790 3556 c0 -9 7 -16 16 -16 9 0 14 5 12 12 -6 18 -28 21 -28 4z"/>
<path d="M3835 3560 c-3 -5 3 -10 15 -10 12 0 18 5 15 10 -3 6 -10 10 -15 10
-5 0 -12 -4 -15 -10z"/>
<path d="M3880 3566 c0 -2 8 -10 18 -17 15 -13 16 -12 3 4 -13 16 -21 21 -21
13z"/>
<path d="M3540 3551 c0 -5 5 -13 10 -16 6 -3 10 -2 10 4 0 5 -4 13 -10 16 -5
3 -10 2 -10 -4z"/>
<path d="M3920 3550 c0 -6 7 -10 15 -10 8 0 15 2 15 4 0 2 -7 6 -15 10 -8 3
-15 1 -15 -4z"/>
<path d="M4015 3540 c3 -5 8 -10 11 -10 2 0 4 5 4 10 0 6 -5 10 -11 10 -5 0
-7 -4 -4 -10z"/>
<path d="M3417 3533 c-13 -12 -7 -23 14 -23 11 0 27 -7 36 -15 8 -9 18 -14 21
-11 6 6 -45 56 -57 56 -4 0 -11 -3 -14 -7z"/>
<path d="M3620 3531 c0 -5 9 -11 20 -14 24 -6 27 8 4 17 -21 8 -24 8 -24 -3z"/>
<path d="M3670 3523 c0 -7 4 -13 9 -13 5 0 17 -3 27 -7 12 -5 15 -3 9 6 -5 10
-2 11 14 6 12 -3 38 -8 58 -10 33 -3 34 -2 19 13 -12 12 -19 13 -28 4 -9 -9
-15 -9 -26 0 -21 18 -82 18 -82 1z"/>
<path d="M4065 3530 c-3 -5 -1 -10 4 -10 6 0 11 5 11 10 0 6 -2 10 -4 10 -3 0
-8 -4 -11 -10z"/>
<path d="M4090 3530 c0 -5 4 -10 9 -10 6 0 13 5 16 10 3 6 -1 10 -9 10 -9 0
-16 -4 -16 -10z"/>
<path d="M3512 3514 c2 -11 13 -20 26 -22 12 -2 22 -7 22 -12 0 -4 9 -10 21
-13 32 -9 18 11 -30 39 -38 24 -43 24 -39 8z"/>
<path d="M3580 3520 c0 -5 7 -10 15 -10 8 0 15 5 15 10 0 6 -7 10 -15 10 -8 0
-15 -4 -15 -10z"/>
<path d="M3975 3520 c3 -5 8 -10 11 -10 2 0 4 5 4 10 0 6 -5 10 -11 10 -5 0
-7 -4 -4 -10z"/>
<path d="M3365 3511 c-3 -5 4 -13 16 -16 23 -8 34 -1 24 14 -8 13 -32 14 -40
2z"/>
<path d="M3842 3511 c2 -7 7 -12 11 -12 12 1 9 15 -3 20 -7 2 -11 -2 -8 -8z"/>
<path d="M3880 3510 c0 -5 5 -10 11 -10 5 0 7 5 4 10 -3 6 -8 10 -11 10 -2 0
-4 -4 -4 -10z"/>
<path d="M4000 3499 c0 -5 5 -7 10 -4 6 3 10 8 10 11 0 2 -4 4 -10 4 -5 0 -10
-5 -10 -11z"/>
<path d="M3307 3485 c-19 -14 -148 -58 -180 -61 -10 -1 -21 -5 -25 -9 -4 -4
11 -5 34 -2 29 5 47 2 63 -9 17 -12 26 -13 34 -5 8 8 5 11 -11 11 -14 0 -22 6
-22 16 0 13 7 15 30 10 19 -3 29 -2 25 4 -4 6 7 10 24 10 21 0 31 5 31 15 0
20 24 19 44 -1 9 -8 24 -13 34 -11 15 4 14 6 -5 12 -12 4 -24 13 -27 21 -7 18
-26 17 -49 -1z"/>
<path d="M3720 3480 c0 -5 9 -14 20 -20 19 -10 20 -10 8 9 -13 22 -28 28 -28
11z"/>
<path d="M3965 3480 c3 -5 11 -10 16 -10 6 0 7 5 4 10 -3 6 -11 10 -16 10 -6
0 -7 -4 -4 -10z"/>
<path d="M4095 3480 c3 -5 11 -10 16 -10 6 0 7 5 4 10 -3 6 -11 10 -16 10 -6
0 -7 -4 -4 -10z"/>
<path d="M3417 3474 c-14 -14 -6 -24 19 -24 16 0 24 5 22 13 -5 14 -31 21 -41
11z"/>
<path d="M3610 3470 c0 -12 44 -20 54 -10 6 6 15 5 23 -2 13 -11 32 -4 20 8
-10 10 -97 14 -97 4z"/>
<path d="M3772 3468 c2 -6 12 -12 22 -14 14 -2 15 0 5 12 -14 17 -32 19 -27 2z"/>
<path d="M3830 3465 c7 -8 17 -15 22 -15 6 0 5 7 -2 15 -7 8 -17 15 -22 15 -6
0 -5 -7 2 -15z"/>
<path d="M4000 3466 c0 -9 5 -16 10 -16 6 0 10 4 10 9 0 6 -4 13 -10 16 -5 3
-10 -1 -10 -9z"/>
<path d="M3486 3443 c-15 -21 -16 -27 -5 -34 8 -5 20 -9 28 -9 11 0 10 4 -3
19 -26 29 0 38 35 12 29 -22 49 -27 49 -13 0 4 -19 17 -43 29 l-42 20 -19 -24z"/>
<path d="M3880 3456 c0 -9 5 -16 10 -16 6 0 10 4 10 9 0 6 -4 13 -10 16 -5 3
-10 -1 -10 -9z"/>
<path d="M3920 3450 c0 -5 5 -10 11 -10 5 0 7 5 4 10 -3 6 -8 10 -11 10 -2 0
-4 -4 -4 -10z"/>
<path d="M4035 3449 c-4 -6 -4 -13 -1 -16 3 -4 6 -1 6 6 0 8 8 10 23 6 17 -5
19 -4 7 4 -19 14 -27 14 -35 0z"/>
<path d="M4090 3451 c0 -5 5 -13 10 -16 6 -3 10 -2 10 4 0 5 -4 13 -10 16 -5
3 -10 2 -10 -4z"/>
<path d="M4130 3439 c0 -13 18 -20 25 -9 4 6 12 7 18 4 7 -4 9 -3 4 1 -10 11
-47 14 -47 4z"/>
<path d="M4190 3441 c0 -6 4 -13 10 -16 6 -3 7 1 4 9 -7 18 -14 21 -14 7z"/>
<path d="M3310 3430 c0 -5 9 -10 20 -10 11 0 20 5 20 10 0 6 -9 10 -20 10 -11
0 -20 -4 -20 -10z"/>
<path d="M3980 3426 c28 -17 50 -21 35 -7 -6 5 -21 12 -35 15 l-25 7 25 -15z"/>
<path d="M3605 3420 c-3 -5 -2 -10 4 -10 5 0 18 -3 28 -7 16 -6 16 -5 4 10
-15 19 -27 22 -36 7z"/>
<path d="M3664 3419 c-8 -13 25 -24 37 -12 7 7 3 12 -10 16 -12 3 -24 1 -27
-4z"/>
<path d="M3730 3415 c7 -9 15 -13 17 -11 7 7 -7 26 -19 26 -6 0 -6 -6 2 -15z"/>
<path d="M3765 3420 c-3 -6 2 -13 12 -17 10 -3 23 -8 28 -11 6 -3 1 4 -9 16
-22 25 -23 25 -31 12z"/>
<path d="M3265 3406 c-17 -12 -16 -14 13 -18 34 -5 41 2 19 21 -10 8 -18 7
-32 -3z"/>
<path d="M3355 3411 c-3 -5 4 -13 16 -16 28 -9 36 1 10 14 -12 7 -22 7 -26 2z"/>
<path d="M3410 3410 c0 -5 12 -10 26 -10 14 0 23 4 19 10 -3 6 -15 10 -26 10
-10 0 -19 -4 -19 -10z"/>
<path d="M3826 3409 c3 -6 15 -9 25 -6 11 3 19 1 19 -4 0 -5 8 -9 17 -9 29 0
-1 21 -36 25 -20 3 -29 0 -25 -6z"/>
<path d="M4050 3405 c7 -9 15 -13 17 -11 7 7 -7 26 -19 26 -6 0 -6 -6 2 -15z"/>
<path d="M3040 3402 c0 -11 39 -12 45 -1 4 5 -5 9 -19 9 -14 0 -26 -4 -26 -8z"/>
<path d="M3916 3399 c3 -6 13 -9 22 -7 10 1 23 -1 30 -5 7 -5 12 -4 12 2 0 6
-3 11 -7 12 -5 0 -20 2 -36 4 -16 2 -25 0 -21 -6z"/>
<path d="M4401 3400 c0 -8 6 -26 14 -40 8 -14 14 -19 14 -10 0 8 -6 26 -14 40
-8 14 -14 19 -14 10z"/>
<path d="M2990 3392 c0 -4 9 -8 20 -9 11 -1 18 2 15 8 -7 11 -35 12 -35 1z"/>
<path d="M3154 3389 c-9 -15 1 -21 26 -17 21 3 21 3 1 15 -14 9 -22 9 -27 2z"/>
<path d="M3530 3387 c0 -8 9 -17 20 -20 11 -3 20 -1 20 4 0 4 -9 13 -20 19
-16 8 -20 8 -20 -3z"/>
<path d="M4170 3391 c0 -5 5 -13 10 -16 6 -3 10 -2 10 4 0 5 -4 13 -10 16 -5
3 -10 2 -10 -4z"/>
<path d="M2861 3376 c-10 -11 -7 -14 14 -12 14 0 24 5 22 10 -5 16 -23 17 -36
2z"/>
<path d="M2920 3381 c0 -5 11 -8 25 -8 13 0 22 3 19 8 -3 5 -14 9 -25 9 -10 0
-19 -4 -19 -9z"/>
<path d="M3090 3380 c0 -5 7 -10 16 -10 8 0 12 5 9 10 -3 6 -10 10 -16 10 -5
0 -9 -4 -9 -10z"/>
<path d="M2810 3370 c-13 -8 -12 -10 3 -10 9 0 17 5 17 10 0 12 -1 12 -20 0z"/>
<path d="M3320 3365 c0 -8 6 -15 13 -16 6 0 20 -2 30 -4 18 -3 18 -3 1 16 -20
23 -44 25 -44 4z"/>
<path d="M3397 3368 c-3 -8 4 -13 18 -13 18 0 21 3 13 13 -6 6 -14 12 -18 12
-4 0 -10 -6 -13 -12z"/>
<path d="M3480 3366 c0 -15 27 -29 34 -18 3 5 -4 13 -15 20 -15 10 -19 10 -19
-2z"/>
<path d="M3590 3372 c0 -4 9 -8 20 -9 11 -1 18 2 15 8 -7 11 -35 12 -35 1z"/>
<path d="M3710 3365 c0 -11 10 -14 40 -13 21 1 37 5 34 10 -4 5 -13 7 -21 4
-8 -3 -23 -1 -34 4 -15 8 -19 7 -19 -5z"/>
<path d="M3810 3373 c0 -13 29 -38 35 -31 3 3 -4 13 -15 23 -11 10 -20 13 -20
8z"/>
<path d="M4000 3372 c0 -12 19 -26 26 -19 2 2 -2 10 -11 17 -9 8 -15 8 -15 2z"/>
<path d="M4221 3364 c0 -11 3 -14 6 -6 3 7 2 16 -1 19 -3 4 -6 -2 -5 -13z"/>
<path d="M2691 3361 c-7 -5 -9 -11 -4 -14 5 -3 15 -2 22 2 7 5 9 11 4 14 -5 3
-15 2 -22 -2z"/>
<path d="M2747 3363 c-10 -9 -9 -23 1 -23 5 0 17 7 28 15 19 14 19 14 -2 15
-11 0 -24 -3 -27 -7z"/>
<path d="M3660 3360 c0 -5 5 -10 10 -10 6 0 10 5 10 10 0 6 -4 10 -10 10 -5 0
-10 -4 -10 -10z"/>
<path d="M3860 3362 c0 -5 7 -15 15 -22 8 -7 15 -8 15 -2 0 5 -7 15 -15 22 -8
7 -15 8 -15 2z"/>
<path d="M4080 3360 c0 -5 5 -10 11 -10 5 0 7 5 4 10 -3 6 -8 10 -11 10 -2 0
-4 -4 -4 -10z"/>
<path d="M2638 3353 c6 -2 18 -2 25 0 6 3 1 5 -13 5 -14 0 -19 -2 -12 -5z"/>
<path d="M2977 3345 c-3 -7 3 -15 14 -18 11 -3 19 0 19 8 0 18 -27 27 -33 10z"/>
<path d="M3035 3349 c-10 -15 -2 -19 23 -12 12 3 19 9 16 14 -7 12 -31 11 -39
-2z"/>
<path d="M3255 3350 c-3 -5 3 -10 14 -10 12 0 21 5 21 10 0 6 -6 10 -14 10 -8
0 -18 -4 -21 -10z"/>
<path d="M3910 3351 c0 -5 5 -13 10 -16 6 -3 10 -2 10 4 0 5 -4 13 -10 16 -5
3 -10 2 -10 -4z"/>
<path d="M4116 3345 c-9 -26 -7 -32 5 -12 6 10 9 21 6 23 -2 3 -7 -2 -11 -11z"/>
<path d="M3200 3340 c0 -5 7 -10 15 -10 8 0 15 5 15 10 0 6 -7 10 -15 10 -8 0
-15 -4 -15 -10z"/>
<path d="M3955 3340 c3 -5 11 -10 16 -10 6 0 7 5 4 10 -3 6 -11 10 -16 10 -6
0 -7 -4 -4 -10z"/>
<path d="M4196 3337 c3 -10 9 -15 12 -12 3 3 0 11 -7 18 -10 9 -11 8 -5 -6z"/>
<path d="M2839 3323 c-12 -15 -12 -16 4 -10 10 4 23 7 28 7 5 0 9 5 9 10 0 16
-26 12 -41 -7z"/>
<path d="M2905 3329 c-10 -16 3 -23 18 -11 8 7 17 9 20 5 4 -3 7 -1 7 5 0 15
-37 16 -45 1z"/>
<path d="M3125 3330 c-3 -5 3 -10 14 -10 12 0 21 5 21 10 0 6 -6 10 -14 10 -8
0 -18 -4 -21 -10z"/>
<path d="M3383 3323 c-22 -8 -14 -23 13 -23 15 0 24 5 22 12 -5 14 -18 18 -35
11z"/>
<path d="M3450 3321 c0 -11 26 -22 34 -14 3 3 3 10 0 14 -7 12 -34 11 -34 0z"/>
<path d="M3525 3321 c-3 -5 4 -13 16 -16 23 -8 34 -1 24 14 -8 13 -32 14 -40
2z"/>
<path d="M4230 3320 c0 -5 5 -10 11 -10 5 0 7 5 4 10 -3 6 -8 10 -11 10 -2 0
-4 -4 -4 -10z"/>
<path d="M2637 3314 c-4 -4 -7 -10 -7 -13 0 -9 87 -7 96 2 4 4 -7 7 -24 7 -16
0 -37 2 -44 5 -8 3 -17 2 -21 -1z"/>
<path d="M2755 3310 c-4 -7 3 -8 22 -4 38 9 42 14 10 14 -14 0 -29 -5 -32 -10z"/>
<path d="M3310 3311 c0 -5 6 -11 13 -13 17 -7 38 2 31 13 -7 12 -44 12 -44 0z"/>
<path d="M3590 3310 c0 -5 10 -10 23 -10 18 0 19 2 7 10 -19 13 -30 13 -30 0z"/>
<path d="M3640 3311 c0 -5 9 -11 20 -14 24 -6 27 8 4 17 -21 8 -24 8 -24 -3z"/>
<path d="M4075 3310 c3 -5 11 -10 16 -10 6 0 7 5 4 10 -3 6 -11 10 -16 10 -6
0 -7 -4 -4 -10z"/>
<path d="M3255 3301 c-3 -6 3 -9 14 -8 11 0 17 5 15 9 -7 11 -22 10 -29 -1z"/>
<path d="M3705 3300 c3 -5 10 -10 16 -10 5 0 9 5 9 10 0 6 -7 10 -16 10 -8 0
-12 -4 -9 -10z"/>
<path d="M3764 3295 c21 -16 32 -13 21 4 -3 6 -14 11 -23 11 -15 -1 -15 -2 2
-15z"/>
<path d="M3810 3300 c0 -5 4 -10 9 -10 6 0 13 5 16 10 3 6 -1 10 -9 10 -9 0
-16 -4 -16 -10z"/>
<path d="M3850 3301 c0 -12 28 -22 35 -12 3 5 -2 12 -11 15 -21 8 -24 8 -24
-3z"/>
<path d="M4120 3300 c0 -5 5 -10 11 -10 5 0 7 5 4 10 -3 6 -8 10 -11 10 -2 0
-4 -4 -4 -10z"/>
<path d="M2956 3285 c-17 -13 -16 -14 11 -13 18 1 30 6 30 14 0 18 -17 17 -41
-1z"/>
<path d="M3020 3291 c0 -5 9 -7 20 -4 11 3 20 7 20 9 0 2 -9 4 -20 4 -11 0
-20 -4 -20 -9z"/>
<path d="M3090 3290 c0 -5 9 -10 21 -10 11 0 17 5 14 10 -3 6 -13 10 -21 10
-8 0 -14 -4 -14 -10z"/>
<path d="M3180 3290 c0 -5 7 -10 15 -10 8 0 15 5 15 10 0 6 -7 10 -15 10 -8 0
-15 -4 -15 -10z"/>
<path d="M3905 3290 c3 -5 11 -10 16 -10 6 0 7 5 4 10 -3 6 -11 10 -16 10 -6
0 -7 -4 -4 -10z"/>
<path d="M4187 3293 c-4 -3 -7 -13 -7 -22 1 -13 3 -13 11 2 11 19 8 33 -4 20z"/>
<path d="M2817 3283 c-13 -13 -7 -21 13 -16 11 3 20 9 20 14 0 10 -24 12 -33
2z"/>
<path d="M2887 3283 c-13 -13 -7 -21 13 -16 11 3 20 9 20 14 0 10 -24 12 -33
2z"/>
<path d="M2740 3264 c0 -14 3 -14 15 -4 8 7 15 14 15 16 0 2 -7 4 -15 4 -8 0
-15 -7 -15 -16z"/>
<path d="M3436 3271 c-3 -5 5 -11 19 -13 20 -4 23 -3 14 8 -13 16 -25 18 -33
5z"/>
<path d="M3494 3273 c10 -11 37 -12 30 -2 -3 5 -12 9 -21 9 -9 0 -13 -3 -9 -7z"/>
<path d="M3570 3271 c0 -5 7 -11 15 -15 8 -3 15 -1 15 3 0 5 -7 11 -15 15 -8
3 -15 1 -15 -3z"/>
<path d="M3990 3270 c0 -5 5 -10 11 -10 5 0 7 5 4 10 -3 6 -8 10 -11 10 -2 0
-4 -4 -4 -10z"/>
<path d="M4426 3253 c9 -38 12 -40 28 -17 16 21 5 44 -20 44 -11 0 -13 -7 -8
-27z"/>
<path d="M2634 3259 c-9 -15 -2 -18 20 -9 17 6 18 7 3 13 -9 3 -19 2 -23 -4z"/>
<path d="M3296 3255 c-3 -8 -1 -15 4 -15 13 0 22 18 11 24 -5 3 -11 -1 -15 -9z"/>
<path d="M3365 3260 c-3 -5 3 -10 14 -10 12 0 21 5 21 10 0 6 -6 10 -14 10 -8
0 -18 -4 -21 -10z"/>
<path d="M3626 3261 c-3 -5 3 -11 15 -14 16 -4 18 -3 8 9 -13 16 -16 17 -23 5z"/>
<path d="M4110 3265 c0 -13 20 -35 32 -35 4 0 8 5 8 11 0 5 -4 8 -9 4 -6 -3
-14 3 -20 12 -6 10 -11 13 -11 8z"/>
<path d="M4255 3260 c3 -5 8 -10 11 -10 2 0 4 5 4 10 0 6 -5 10 -11 10 -5 0
-7 -4 -4 -10z"/>
<path d="M3230 3250 c0 -5 7 -10 16 -10 8 0 12 5 9 10 -3 6 -10 10 -16 10 -5
0 -9 -4 -9 -10z"/>
<path d="M3694 3245 c11 -8 22 -12 25 -9 6 6 -19 24 -34 24 -5 -1 -1 -7 9 -15z"/>
<path d="M4091 3243 c7 -12 15 -20 18 -17 3 2 -3 12 -13 22 -17 16 -18 16 -5
-5z"/>
<path d="M3080 3238 c0 -4 7 -8 15 -8 8 0 15 4 15 8 0 5 -7 9 -15 9 -8 0 -15
-4 -15 -9z"/>
<path d="M3147 3243 c-14 -13 -6 -20 18 -15 14 2 22 8 19 13 -6 11 -28 12 -37
2z"/>
<path d="M3750 3240 c0 -5 5 -10 10 -10 6 0 10 5 10 10 0 6 -4 10 -10 10 -5 0
-10 -4 -10 -10z"/>
<path d="M3930 3240 c0 -13 18 -22 24 -11 3 5 -1 11 -9 15 -8 3 -15 1 -15 -4z"/>
<path d="M2690 3226 c0 -9 7 -12 20 -9 11 3 20 9 20 14 0 5 -9 9 -20 9 -11 0
-20 -6 -20 -14z"/>
<path d="M2863 3233 c-21 -8 -15 -18 11 -18 15 0 22 5 19 13 -5 13 -10 14 -30
5z"/>
<path d="M2936 3232 c-2 -4 7 -9 20 -10 15 -1 22 2 19 8 -7 12 -32 13 -39 2z"/>
<path d="M3005 3230 c-4 -6 5 -10 20 -10 15 0 24 4 20 10 -3 6 -12 10 -20 10
-8 0 -17 -4 -20 -10z"/>
<path d="M4215 3230 c-3 -4 6 -10 20 -12 14 -3 25 -2 25 2 0 11 -39 20 -45 10z"/>
<path d="M4280 3229 c0 -5 5 -7 10 -4 6 3 10 8 10 11 0 2 -4 4 -10 4 -5 0 -10
-5 -10 -11z"/>
<path d="M2775 3220 c-7 -12 2 -12 30 0 19 8 19 9 -2 9 -12 1 -25 -3 -28 -9z"/>
<path d="M3474 3216 c-9 -10 0 -13 42 -12 53 1 68 8 40 19 -7 3 -18 1 -24 -5
-6 -6 -16 -7 -28 0 -13 7 -22 6 -30 -2z"/>
<path d="M4464 3215 c3 -21 16 -31 16 -12 0 9 -4 18 -9 21 -5 4 -8 -1 -7 -9z"/>
<path d="M3350 3211 c0 -5 9 -11 19 -14 14 -3 18 -1 14 9 -6 15 -33 19 -33 5z"/>
<path d="M3415 3210 c-8 -13 5 -13 25 0 13 8 13 10 -2 10 -9 0 -20 -4 -23 -10z"/>
<path d="M3605 3211 c-3 -5 2 -11 10 -15 8 -3 17 -1 20 3 3 5 -2 11 -10 15 -8
3 -17 1 -20 -3z"/>
<path d="M4006 3211 c-3 -5 5 -11 19 -13 20 -4 23 -3 14 8 -13 16 -25 18 -33
5z"/>
<path d="M2630 3200 c0 -5 4 -10 9 -10 6 0 13 5 16 10 3 6 -1 10 -9 10 -9 0
-16 -4 -16 -10z"/>
<path d="M3210 3195 c-14 -16 -3 -20 19 -6 8 5 9 11 3 15 -5 3 -15 -1 -22 -9z"/>
<path d="M3280 3200 c-12 -8 -11 -10 8 -10 12 0 22 5 22 10 0 13 -11 13 -30 0z"/>
<path d="M3666 3202 c-2 -4 4 -9 15 -9 11 -1 17 2 14 8 -7 11 -22 12 -29 1z"/>
<path d="M4060 3206 c0 -2 7 -9 15 -16 9 -7 15 -8 15 -2 0 5 -7 12 -15 16 -8
3 -15 4 -15 2z"/>
<path d="M4437 3204 c-9 -9 30 -67 48 -70 12 -2 14 3 9 19 -3 12 -7 22 -8 22
0 0 -10 8 -22 18 -11 9 -23 14 -27 11z"/>
<path d="M2906 3184 c-9 -22 -8 -23 14 -17 23 6 26 19 6 26 -8 3 -17 -1 -20
-9z"/>
<path d="M2995 3186 c-17 -12 -17 -13 3 -18 12 -4 23 0 26 8 8 20 -8 25 -29
10z"/>
<path d="M3060 3185 c-14 -16 -10 -18 14 -9 9 3 16 10 16 15 0 14 -16 11 -30
-6z"/>
<path d="M3135 3190 c-3 -5 3 -10 14 -10 12 0 21 5 21 10 0 6 -6 10 -14 10 -8
0 -18 -4 -21 -10z"/>
<path d="M3786 3187 c3 -10 9 -15 12 -12 3 3 0 11 -7 18 -10 9 -11 8 -5 -6z"/>
<path d="M3830 3184 c0 -8 5 -12 10 -9 6 4 8 11 5 16 -9 14 -15 11 -15 -7z"/>
<path d="M4271 3186 c-12 -15 -5 -46 11 -46 6 0 6 5 -1 14 -9 11 -8 18 4 30 9
9 12 16 7 16 -5 0 -15 -6 -21 -14z"/>
<path d="M2745 3179 c-11 -17 0 -20 21 -4 17 13 17 14 2 15 -9 0 -20 -5 -23
-11z"/>
<path d="M2826 3181 c-4 -5 3 -7 14 -4 23 6 26 13 6 13 -8 0 -17 -4 -20 -9z"/>
<path d="M3880 3180 c0 -5 5 -10 10 -10 6 0 10 5 10 10 0 6 -4 10 -10 10 -5 0
-10 -4 -10 -10z"/>
<path d="M3926 3175 c4 -8 8 -15 10 -15 2 0 4 7 4 15 0 8 -4 15 -10 15 -5 0
-7 -7 -4 -15z"/>
<path d="M4200 3179 c0 -5 5 -7 10 -4 6 3 10 8 10 11 0 2 -4 4 -10 4 -5 0 -10
-5 -10 -11z"/>
<path d="M2680 3170 c0 -5 7 -7 15 -4 8 4 15 8 15 10 0 2 -7 4 -15 4 -8 0 -15
-4 -15 -10z"/>
<path d="M3965 3170 c3 -5 8 -10 11 -10 2 0 4 5 4 10 0 6 -5 10 -11 10 -5 0
-7 -4 -4 -10z"/>
<path d="M3465 3161 c-3 -5 -2 -12 3 -15 5 -3 9 1 9 9 0 17 -3 19 -12 6z"/>
<path d="M3530 3160 c0 -5 5 -10 11 -10 5 0 7 5 4 10 -3 6 -8 10 -11 10 -2 0
-4 -4 -4 -10z"/>
<path d="M3590 3159 c0 -5 5 -7 10 -4 6 3 10 8 10 11 0 2 -4 4 -10 4 -5 0 -10
-5 -10 -11z"/>
<path d="M3266 3151 c-3 -5 0 -11 8 -14 15 -6 26 1 26 15 0 11 -27 10 -34 -1z"/>
<path d="M3335 3150 c3 -5 10 -10 16 -10 5 0 9 5 9 10 0 6 -7 10 -16 10 -8 0
-12 -4 -9 -10z"/>
<path d="M3395 3150 c-4 -6 6 -10 22 -10 22 0 25 2 13 10 -19 12 -27 12 -35 0z"/>
<path d="M2637 3143 c-12 -12 -7 -22 8 -17 8 4 15 10 15 15 0 11 -14 12 -23 2z"/>
<path d="M3186 3134 c-3 -8 1 -14 9 -14 20 0 28 17 11 23 -8 3 -17 -1 -20 -9z"/>
<path d="M3700 3140 c0 -5 5 -10 11 -10 5 0 7 5 4 10 -3 6 -8 10 -11 10 -2 0
-4 -4 -4 -10z"/>
<path d="M2807 3133 c-13 -12 -7 -25 6 -14 8 6 18 7 22 3 5 -4 5 -1 1 6 -8 13
-19 16 -29 5z"/>
<path d="M2951 3126 c-10 -12 -8 -13 8 -9 12 3 21 9 21 14 0 14 -16 11 -29 -5z"/>
<path d="M3105 3130 c-3 -5 3 -10 14 -10 12 0 21 5 21 10 0 6 -6 10 -14 10 -8
0 -18 -4 -21 -10z"/>
<path d="M3760 3130 c0 -5 5 -10 10 -10 6 0 10 5 10 10 0 6 -4 10 -10 10 -5 0
-10 -4 -10 -10z"/>
<path d="M3810 3130 c0 -5 5 -10 11 -10 5 0 7 5 4 10 -3 6 -8 10 -11 10 -2 0
-4 -4 -4 -10z"/>
<path d="M4098 3133 c7 -3 16 -2 19 1 4 3 -2 6 -13 5 -11 0 -14 -3 -6 -6z"/>
<path d="M2725 3120 c-3 -5 -2 -10 4 -10 5 0 13 5 16 10 3 6 2 10 -4 10 -5 0
-13 -4 -16 -10z"/>
<path d="M2877 3123 c-13 -13 -7 -21 13 -16 11 3 17 9 14 14 -6 11 -18 12 -27
2z"/>
<path d="M3030 3122 c0 -4 9 -8 20 -9 11 -1 20 2 20 8 0 5 -9 9 -20 9 -11 0
-20 -4 -20 -8z"/>
<path d="M3848 3123 c7 -3 16 -2 19 1 4 3 -2 6 -13 5 -11 0 -14 -3 -6 -6z"/>
<path d="M3945 3110 c-4 -6 6 -10 22 -10 22 0 25 2 13 10 -19 12 -27 12 -35 0z"/>
<path d="M4000 3111 c0 -10 19 -25 25 -20 1 2 -3 10 -11 17 -8 7 -14 8 -14 3z"/>
<path d="M4300 3111 c0 -7 -4 -10 -9 -6 -5 3 -13 0 -17 -6 -4 -7 -3 -9 4 -5 6
3 13 -2 15 -11 4 -16 5 -16 6 1 1 16 3 17 19 5 16 -13 16 -13 2 6 -8 11 -16
22 -17 24 -2 2 -3 -1 -3 -8z"/>
<path d="M3245 3100 c-3 -5 3 -10 15 -10 12 0 18 5 15 10 -3 6 -10 10 -15 10
-5 0 -12 -4 -15 -10z"/>
<path d="M3315 3100 c-3 -5 1 -10 9 -10 9 0 16 5 16 10 0 6 -4 10 -9 10 -6 0
-13 -4 -16 -10z"/>
<path d="M3570 3100 c0 -5 5 -10 10 -10 6 0 10 5 10 10 0 6 -4 10 -10 10 -5 0
-10 -4 -10 -10z"/>
<path d="M4040 3101 c0 -5 7 -11 14 -14 10 -4 13 -1 9 9 -6 15 -23 19 -23 5z"/>
<path d="M3165 3090 c-3 -5 3 -10 15 -10 12 0 18 5 15 10 -3 6 -10 10 -15 10
-5 0 -12 -4 -15 -10z"/>
<path d="M3401 3084 c0 -11 3 -14 6 -6 3 7 2 16 -1 19 -3 4 -6 -2 -5 -13z"/>
<path d="M3445 3090 c3 -5 14 -10 23 -10 15 0 15 2 2 10 -20 13 -33 13 -25 0z"/>
<path d="M3508 3093 c7 -3 16 -2 19 1 4 3 -2 6 -13 5 -11 0 -14 -3 -6 -6z"/>
<path d="M3620 3096 c0 -2 9 -6 20 -9 11 -3 18 -1 14 4 -5 9 -34 13 -34 5z"/>
<path d="M3680 3090 c0 -5 5 -10 11 -10 5 0 7 5 4 10 -3 6 -8 10 -11 10 -2 0
-4 -4 -4 -10z"/>
<path d="M4086 3091 c-3 -5 1 -11 9 -15 8 -3 15 -1 15 4 0 13 -18 22 -24 11z"/>
<path d="M2635 3080 c-3 -5 1 -10 10 -10 9 0 13 5 10 10 -3 6 -8 10 -10 10 -2
0 -7 -4 -10 -10z"/>
<path d="M3000 3080 c0 -5 6 -10 14 -10 8 0 18 5 21 10 3 6 -3 10 -14 10 -12
0 -21 -4 -21 -10z"/>
<path d="M3085 3080 c-3 -5 1 -10 9 -10 9 0 16 5 16 10 0 6 -4 10 -9 10 -6 0
-13 -4 -16 -10z"/>
<path d="M4170 3086 c0 -2 8 -10 18 -17 15 -13 16 -12 3 4 -13 16 -21 21 -21
13z"/>
<path d="M2703 3073 c-7 -3 -13 -11 -13 -20 0 -12 2 -12 16 2 18 17 16 25 -3
18z"/>
<path d="M2775 3069 c-11 -16 -1 -19 13 -3 7 8 8 14 3 14 -5 0 -13 -5 -16 -11z"/>
<path d="M2844 3065 c-17 -13 -17 -14 -2 -15 9 0 20 5 23 11 11 17 0 20 -21 4z"/>
<path d="M2925 3070 c-4 -6 5 -10 20 -10 15 0 24 4 20 10 -3 6 -12 10 -20 10
-8 0 -17 -4 -20 -10z"/>
<path d="M3800 3071 c0 -6 4 -13 10 -16 6 -3 7 1 4 9 -7 18 -14 21 -14 7z"/>
<path d="M3995 3050 c3 -5 8 -10 11 -10 2 0 4 5 4 10 0 6 -5 10 -11 10 -5 0
-7 -4 -4 -10z"/>
<path d="M4270 3056 c0 -2 7 -9 15 -16 9 -7 15 -8 15 -2 0 5 -7 12 -15 16 -8
3 -15 4 -15 2z"/>
<path d="M3225 3040 c3 -5 11 -10 16 -10 6 0 7 5 4 10 -3 6 -11 10 -16 10 -6
0 -7 -4 -4 -10z"/>
<path d="M3290 3040 c0 -5 5 -10 11 -10 5 0 7 5 4 10 -3 6 -8 10 -11 10 -2 0
-4 -4 -4 -10z"/>
<path d="M4030 3040 c0 -5 5 -10 10 -10 6 0 10 5 10 10 0 6 -4 10 -10 10 -5 0
-10 -4 -10 -10z"/>
<path d="M4077 3044 c-3 -5 1 -15 9 -22 16 -14 18 -5 5 17 -5 7 -11 9 -14 5z"/>
<path d="M4511 3034 c0 -11 3 -14 6 -6 3 7 2 16 -1 19 -3 4 -6 -2 -5 -13z"/>
<path d="M3140 3032 c0 -5 7 -9 15 -9 8 0 12 4 9 9 -3 4 -9 8 -15 8 -5 0 -9
-4 -9 -8z"/>
<path d="M3367 3029 c7 -7 15 -10 18 -7 3 3 -2 9 -12 12 -14 6 -15 5 -6 -5z"/>
<path d="M3425 3030 c-3 -5 1 -10 10 -10 9 0 13 5 10 10 -3 6 -8 10 -10 10 -2
0 -7 -4 -10 -10z"/>
<path d="M3490 3030 c0 -6 7 -10 15 -10 8 0 15 2 15 4 0 2 -7 6 -15 10 -8 3
-15 1 -15 -4z"/>
<path d="M3610 3030 c0 -6 7 -10 15 -10 8 0 15 2 15 4 0 2 -7 6 -15 10 -8 3
-15 1 -15 -4z"/>
<path d="M4116 3032 c-2 -4 4 -14 15 -20 19 -12 19 -11 9 8 -12 22 -16 24 -24
12z"/>
<path d="M4190 3036 c0 -2 8 -10 18 -17 15 -13 16 -12 3 4 -13 16 -21 21 -21
13z"/>
<path d="M2980 3022 c0 -5 7 -9 15 -9 8 0 15 4 15 9 0 4 -7 8 -15 8 -8 0 -15
-4 -15 -8z"/>
<path d="M3060 3026 c0 -9 30 -14 35 -6 4 6 -3 10 -14 10 -12 0 -21 -2 -21 -4z"/>
<path d="M4166 3016 c21 -15 30 -14 19 3 -3 6 -14 11 -23 11 -13 0 -13 -2 4
-14z"/>
<path d="M2635 3009 c-11 -16 -1 -19 13 -3 7 8 8 14 3 14 -5 0 -13 -5 -16 -11z"/>
<path d="M2747 3013 c-13 -13 -7 -21 13 -16 11 3 17 9 14 14 -6 11 -18 12 -27
2z"/>
<path d="M2813 3013 c-7 -3 -13 -14 -13 -26 0 -20 1 -20 13 -2 8 10 19 15 25
11 7 -4 12 -3 12 2 0 12 -21 20 -37 15z"/>
<path d="M2892 3007 c-8 -10 -6 -13 9 -13 20 0 25 11 10 20 -5 3 -13 0 -19 -7z"/>
<path d="M3780 3010 c0 -5 5 -10 10 -10 6 0 10 5 10 10 0 6 -4 10 -10 10 -5 0
-10 -4 -10 -10z"/>
<path d="M4276 2997 c3 -10 9 -15 12 -12 3 3 0 11 -7 18 -10 9 -11 8 -5 -6z"/>
<path d="M2686 2991 c-4 -5 3 -7 14 -4 23 6 26 13 6 13 -8 0 -17 -4 -20 -9z"/>
<path d="M4360 2993 c0 -4 5 -15 10 -23 8 -13 10 -13 10 2 0 9 -4 20 -10 23
-5 3 -10 3 -10 -2z"/>
<path d="M4521 2984 c0 -11 3 -14 6 -6 3 7 2 16 -1 19 -3 4 -6 -2 -5 -13z"/>
<path d="M2955 2980 c-3 -5 1 -10 10 -10 9 0 13 5 10 10 -3 6 -8 10 -10 10 -2
0 -7 -4 -10 -10z"/>
<path d="M3198 2983 c7 -3 16 -2 19 1 4 3 -2 6 -13 5 -11 0 -14 -3 -6 -6z"/>
<path d="M3270 2980 c0 -5 5 -10 11 -10 5 0 7 5 4 10 -3 6 -8 10 -11 10 -2 0
-4 -4 -4 -10z"/>
<path d="M4072 2970 c14 -22 24 -19 15 5 -4 8 -11 15 -17 15 -6 0 -6 -7 2 -20z"/>
<path d="M4140 2981 c0 -6 9 -15 20 -21 13 -7 20 -7 20 -1 0 6 -9 15 -20 21
-13 7 -20 7 -20 1z"/>
<path d="M4191 2967 c10 -21 14 -24 29 -14 14 8 22 8 34 -3 9 -7 19 -10 23 -7
3 4 -7 12 -23 19 -16 7 -32 17 -36 23 -5 6 -8 5 -8 -4 0 -11 -3 -11 -16 -1
-13 12 -14 10 -3 -13z"/>
<path d="M3110 2976 c0 -2 7 -6 15 -10 8 -3 15 -1 15 4 0 6 -7 10 -15 10 -8 0
-15 -2 -15 -4z"/>
<path d="M3408 2973 c7 -3 16 -2 19 1 4 3 -2 6 -13 5 -11 0 -14 -3 -6 -6z"/>
<path d="M4110 2971 c0 -5 5 -13 10 -16 6 -3 10 -2 10 4 0 5 -4 13 -10 16 -5
3 -10 2 -10 -4z"/>
<path d="M4400 2960 c0 -5 7 -10 16 -10 8 0 12 5 9 10 -3 6 -10 10 -16 10 -5
0 -9 -4 -9 -10z"/>
<path d="M2635 2949 c-11 -17 1 -21 15 -4 8 9 8 15 2 15 -6 0 -14 -5 -17 -11z"/>
<path d="M2860 2945 c-9 -11 -8 -14 9 -12 22 1 28 12 12 21 -5 3 -14 -1 -21
-9z"/>
<path d="M2705 2930 c-3 -11 -13 -20 -21 -20 -8 0 -14 -5 -14 -10 0 -7 6 -7
20 0 11 6 20 15 20 21 0 5 10 14 23 19 l22 9 -22 0 c-13 1 -24 -7 -28 -19z"/>
<path d="M2783 2935 c-9 -24 1 -27 15 -5 8 13 8 20 2 20 -6 0 -13 -7 -17 -15z"/>
<path d="M4322 2938 c2 -6 14 -15 26 -19 16 -6 22 -5 22 6 0 8 -3 15 -7 16 -5
0 -16 2 -26 4 -10 2 -17 -1 -15 -7z"/>
<path d="M4531 2934 c0 -11 3 -14 6 -6 3 7 2 16 -1 19 -3 4 -6 -2 -5 -13z"/>
<path d="M2925 2930 c-3 -5 1 -10 10 -10 9 0 13 5 10 10 -3 6 -8 10 -10 10 -2
0 -7 -4 -10 -10z"/>
<path d="M3006 2922 c-2 -4 6 -8 19 -8 13 0 21 4 19 8 -3 4 -11 8 -19 8 -8 0
-16 -4 -19 -8z"/>
<path d="M3086 2921 c-3 -5 1 -11 9 -15 8 -3 15 -1 15 4 0 13 -18 22 -24 11z"/>
<path d="M3160 2926 c0 -2 9 -6 20 -9 11 -3 18 -1 14 4 -5 9 -34 13 -34 5z"/>
<path d="M3247 2919 c7 -7 15 -10 18 -7 3 3 -2 9 -12 12 -14 6 -15 5 -6 -5z"/>
<path d="M4015 2920 c3 -5 11 -10 16 -10 6 0 7 5 4 10 -3 6 -11 10 -16 10 -6
0 -7 -4 -4 -10z"/>
<path d="M4084 2917 c-4 -7 -4 -9 1 -5 4 4 14 0 21 -10 12 -15 13 -15 14 -1 0
21 -27 32 -36 16z"/>
<path d="M4170 2926 c0 -4 7 -14 15 -22 8 -9 15 -11 15 -6 0 5 -7 15 -15 22
-8 7 -15 9 -15 6z"/>
<path d="M4385 2920 c3 -5 14 -10 23 -10 15 0 15 2 2 10 -20 13 -33 13 -25 0z"/>
<path d="M3310 2906 c7 -7 14 -6 21 1 9 9 7 12 -9 10 -14 -1 -18 -5 -12 -11z"/>
<path d="M4135 2910 c3 -5 11 -10 16 -10 6 0 7 5 4 10 -3 6 -11 10 -16 10 -6
0 -7 -4 -4 -10z"/>
<path d="M4212 2908 c5 -15 28 -23 28 -10 0 5 -7 13 -16 16 -10 4 -14 1 -12
-6z"/>
<path d="M3685 2900 c-3 -5 1 -10 10 -10 9 0 13 5 10 10 -3 6 -8 10 -10 10 -2
0 -7 -4 -10 -10z"/>
<path d="M4260 2891 c8 -6 18 -7 23 -4 5 3 13 -1 18 -8 7 -11 9 -10 9 4 0 13
-8 17 -32 17 -24 0 -29 -3 -18 -9z"/>
<path d="M2725 2880 c-3 -6 1 -7 9 -4 18 7 21 14 7 14 -6 0 -13 -4 -16 -10z"/>
<path d="M4320 2886 c0 -2 7 -6 15 -10 8 -3 15 -1 15 4 0 6 -7 10 -15 10 -8 0
-15 -2 -15 -4z"/>
<path d="M4391 2874 c0 -11 3 -14 6 -6 3 7 2 16 -1 19 -3 4 -6 -2 -5 -13z"/>
<path d="M4200 2863 c0 -13 17 -26 39 -30 8 -1 18 -8 23 -15 7 -9 8 -7 6 7 -2
11 -7 18 -12 17 -5 -2 -13 2 -17 10 -7 11 -9 10 -9 -1 0 -11 -4 -9 -15 5 -8
10 -15 14 -15 7z"/>
<path d="M4461 2854 c0 -11 3 -14 6 -6 3 7 2 16 -1 19 -3 4 -6 -2 -5 -13z"/>
<path d="M4280 2843 c0 -11 52 -31 68 -25 6 2 12 8 12 14 0 5 -9 7 -20 3 -10
-3 -28 -1 -40 5 -11 6 -20 7 -20 3z"/>
<path d="M4501 2834 c0 -11 3 -14 6 -6 3 7 2 16 -1 19 -3 4 -6 -2 -5 -13z"/>
<path d="M4376 2824 c4 -14 14 -20 35 -19 16 0 29 3 29 7 0 5 -10 8 -23 8 -13
0 -28 5 -34 11 -9 9 -11 7 -7 -7z"/>
<path d="M3985 2810 c3 -5 8 -10 11 -10 2 0 4 5 4 10 0 6 -5 10 -11 10 -5 0
-7 -4 -4 -10z"/>
<path d="M4050 2806 c0 -2 7 -7 16 -10 8 -3 12 -2 9 4 -6 10 -25 14 -25 6z"/>
<path d="M4184 2798 c-5 -7 -3 -8 6 -3 10 6 12 4 7 -8 -3 -10 -2 -17 3 -17 6
0 10 4 10 9 0 5 10 7 23 4 21 -4 21 -3 -3 11 -30 19 -37 19 -46 4z"/>
<path d="M4296 2773 c-6 -14 -5 -15 5 -6 7 7 10 15 7 18 -3 3 -9 -2 -12 -12z"/>
<path d="M4350 2771 c-13 -13 -12 -14 3 -8 9 3 17 2 17 -3 0 -6 5 -10 10 -10
6 0 10 8 10 18 0 23 -21 24 -40 3z"/>
<path d="M4505 2780 c3 -5 8 -10 11 -10 2 0 4 5 4 10 0 6 -5 10 -11 10 -5 0
-7 -4 -4 -10z"/>
<path d="M4400 2768 c0 -7 11 -18 24 -24 30 -14 26 5 -4 24 -16 10 -20 10 -20
0z"/>
<path d="M4460 2750 c0 -6 7 -10 15 -10 8 0 15 2 15 4 0 2 -7 6 -15 10 -8 3
-15 1 -15 -4z"/>
<path d="M4550 2701 c0 -6 4 -13 10 -16 6 -3 7 1 4 9 -7 18 -14 21 -14 7z"/>
<path d="M3820 1131 c0 -4 11 -20 25 -35 14 -15 25 -31 25 -37 0 -15 17 -11
24 6 3 8 1 15 -4 15 -13 0 -50 37 -50 50 0 6 -4 10 -10 10 -5 0 -10 -4 -10 -9z"/>
</g>
</svg>
